<svg viewBox="0 0 6832 4554.67" xmlns="http://www.w3.org/2000/svg" xmlns:xlink="http://www.w3.org/1999/xlink" overflow="hidden"><defs></defs><g id="Слой_2"><g id="Слой_1-2"><rect x="0" y="1.7" width="6832" height="4552.97" fill="#D7EEFE"/><path d="M3472.93 0 3129.17 115.49 3088.18 129.04 2347.82 377.76 2306.6 391.52 1566.24 640.04 1525.13 653.79 618.3 958.31 577.19 972.06 0 1165.88 0 0 3472.93 0Z" fill="#FFFFFF"/><path d="M593.59 950.64 243.79 731.64 1040.86 443.16 1411.26 676.16ZM1430.28 669.73 1059.42 436.36 1850.79 149.87 2244.54 396.4ZM3425.22 0 3098.54 109.71 2923.3 0 2893.92 0 3079.41 116.09 2263.67 389.92 1869.35 143.19 2264.92 0 2220.29 0 1853.07 132.93 1640.7 0 1611.33 0 1834.39 139.61 1043.13 426.09 540.41 109.81 846.14 0 801.28 0 524 99.55 365.74 0 336.59 0 505.45 106.22 0 287.78 0 303.92 521.74 116.49 1024.57 432.87 227.51 721.35 0 579 0 597.44 208.83 728.13 0 803.76 0 819.9 225.23 738.39 574.46 957 0 1149.83 0 1184.21 3509.37 0Z" fill="#7FAFC6"/><rect x="0" y="3734.83" width="6829.38" height="819.84" fill="#7FAFC6"/><path d="M6829.38 4259.87 0 4268.74 0 4280.13 6829.38 4271.25 6829.38 4259.87Z" fill="#5B8499"/><rect x="0" y="4002.41" width="6829.38" height="11.39" fill="#5B8499"/><rect x="0" y="3803.15" width="6829.38" height="11.39" fill="#5B8499"/><rect x="2046.58" y="1366.31" width="2173.9" height="1312.43" fill="#2F4A79"/><path d="M4235.84 2691.5 2031.21 2691.5 2031.21 1353.5 4235.84 1353.5ZM2061.94 2666 4205.11 2666 4205.11 1379.08 2061.94 1379.08Z" fill="#FFBE7C"/><rect x="2046.58" y="2618.06" width="2173.9" height="60.67" fill="#FFBE7C"/><path d="M2606.69 3035.49C2606.59 3035.64 2606.47 3035.77 2606.32 3035.87 2605.99 3036.1 2605.32 3035.87 2604.99 3035.87L2332.5 3036.3C2329.1 3036.3 2326.32 3031.23 2326.31 3024.97L2326.31 2989.69C2326.31 2983.44 2329.06 2978.35 2332.46 2978.34L2602.93 2977.92C2603.78 2977.92 2605.51 2977.28 2606.3 2977.92 2606.46 2978.04 2606.64 2977.92 2606.81 2978.02 2607.33 2980.78 2606.68 2984.19 2605.81 2987.59 2604.97 2990.77 2603.93 2993.93 2603.48 2996.41 2602.12 3004.12 2602.16 3012.01 2603.61 3019.71 2604.13 3022.76 2604.88 3025.77 2605.84 3028.71 2605.91 3028.91 2606 3029.16 2606.11 3029.4 2606.74 3031.21 2607.86 3033.74 2606.69 3035.49Z" fill="#F26061"/><path d="M2606 3029.44 2520.39 3029.57C2517.78 3029.57 2515.66 3025.68 2515.65 3020.88L2515.65 2996.41C2515.65 2991.61 2517.76 2987.72 2520.37 2987.72L2605.74 2987.59C2604.9 2990.77 2603.86 2993.93 2603.41 2996.41 2602.05 3004.12 2602.09 3012.01 2603.54 3019.71 2604.06 3022.76 2604.81 3025.77 2605.77 3028.71 2605.82 3029 2605.91 3029.2 2606 3029.44Z" fill="#FFFFFF"/><path d="M2802 2867.29 2741.66 2867.38 2706.86 2867.38 2707 2961.46C2707 2989.46 2716.89 3016.32 2734.42 3036.28L2742 3036.28 2802.33 3036.19 2809.84 3036.19 2809.84 3036.19C2827.31 3016.19 2837.07 2989.28 2837.03 2961.28L2836.88 2867.21Z" fill="#FFFFFF"/><path d="M2831.15 3009.55C2818.08 3009.55 2805.86 3003.55 2796.74 2992.55 2787.93 2981.96 2783.07 2967.94 2783.04 2953.08 2782.99 2921.91 2804.53 2896.51 2831.04 2896.47L2831.1 2896.47C2857.59 2896.47 2879.17 2921.78 2879.22 2952.94L2879.22 2952.94C2879.22 2967.79 2874.42 2981.82 2865.64 2992.44 2856.54 3003.44 2844.32 3009.53 2831.21 3009.55ZM2831.15 2910.78 2831.15 2910.78C2812.53 2910.78 2797.4 2929.78 2797.44 2953.06 2797.44 2964.59 2801.15 2975.36 2807.83 2983.4 2814.18 2991.03 2822.49 2995.23 2831.24 2995.23L2831.24 2995.23C2840.01 2995.23 2848.32 2990.99 2854.66 2983.33 2861.31 2975.27 2864.97 2964.48 2864.95 2952.96L2864.95 2952.96C2864.87 2929.69 2849.71 2910.78 2831.11 2910.78Z" fill="#FFFFFF"/><g opacity="0.6"><ellipse cx="6165.7" cy="3808.84" rx="546.56" ry="74.01" fill="#558EA0"/></g><path d="M6347.85 1147.25C6351.41 1142.59 6353.83 1137.17 6354.92 1131.42 6355.98 1125.34 6355.71 1119.1 6354.11 1113.13 6352.41 1106.07 6349.69 1098.62 6351.55 1091.26 6351.91 1089.82 6348.99 1089.68 6348.55 1090.76 6346.28 1095.98 6343.79 1101.07 6341.08 1106.04 6338.38 1110.97 6335.32 1115.65 6332.59 1120.56 6329.93 1125.32 6327.99 1130.44 6326.84 1135.77 6325.62 1141.42 6324.98 1147.22 6324.23 1152.95 6323.77 1156.44 6323.35 1159.95 6322.91 1163.41 6322.25 1161.22 6321.68 1159.02 6321.17 1156.84 6317.63 1141.67 6317.38 1125.95 6315.92 1110.43 6316.19 1105.81 6319.84 1102.76 6323.13 1100.34 6327.13 1097.43 6330.98 1094.75 6334.02 1090.63 6337.06 1086.48 6339.2 1081.74 6340.29 1076.72 6341.41 1071.03 6341.32 1065.17 6340.04 1059.52 6338.73 1052.77 6336.68 1045.52 6339.1 1038.78 6339.6 1037.41 6336.79 1037.35 6336.24 1038.05 6330.35 1045.47 6324.44 1052.99 6319.84 1061.47 6317.52 1065.67 6315.65 1070.11 6314.28 1074.71 6313.15 1078.74 6312.43 1082.87 6312.14 1087.04 6311.09 1082.86 6309.72 1078.77 6308.04 1074.8 6305.74 1069.59 6302.86 1064.66 6299.44 1060.11 6298.29 1058.54 6297.1 1057 6295.91 1055.45L6304.91 1039.81C6308.16 1034.14 6311.63 1028.56 6314.45 1022.61 6317.26 1017.08 6318.8 1010.99 6318.97 1004.79 6318.97 998.18 6317.17 991.95 6315.81 985.59 6314.97 981.65 6314.25 977.02 6315.29 973.03 6316.29 971.539 6317.13 969.947 6317.79 968.28 6318.32 966.9 6315.47 966.92 6314.92 967.56 6313.68 968.979 6312.78 970.667 6312.3 972.49 6307.6 979.64 6299.93 984.19 6294.97 991.16 6291.47 996.08 6290.06 1001.89 6289.39 1007.99 6288.6 1015.14 6288.05 1022.39 6287.88 1029.59 6287.72 1034.8 6287.98 1040.02 6288.65 1045.19 6285.75 1040.33 6283.48 1035.12 6281.89 1029.68 6278.45 1018.19 6277.43 1006.05 6276.28 994.09 6276.18 993.09 6276.07 992.04 6275.97 991.01 6277.69 987.778 6279.94 984.858 6282.63 982.37 6286.22 978.78 6289.94 975.37 6292.77 971.01 6298.59 962.01 6300.41 950.74 6300.77 939.94 6301 933.54 6300.77 927.13 6300.39 920.74 6300.33 919.52 6297.64 919.44 6297.31 920.49 6294.16 930.62 6287.41 938.49 6281.23 946.49 6277.9 950.656 6274.98 955.126 6272.49 959.84 6272.21 957.59 6271.94 955.34 6271.65 953.09 6270.98 947.757 6270.26 942.423 6269.48 937.09L6269.48 937.03C6278.1 917.36 6295.09 904.2 6304.48 885.12 6305.76 882.533 6306.86 879.86 6307.76 877.12 6308.76 874.12 6309.76 870.82 6308.62 867.7 6308.24 866.7 6306.37 866.91 6305.75 867.48 6293.08 879.082 6281.48 891.8 6271.09 905.48 6269.27 907.87 6267.5 910.3 6265.75 912.74 6266.29 902.94 6269.38 893.51 6271.31 883.95 6272.54 878.474 6273.02 872.855 6272.73 867.25 6272.3 861.66 6270.59 856.34 6268.78 851.13 6266.67 845.04 6264.43 838.92 6264.17 832.34 6264.17 831.14 6261.35 831.02 6261.08 832.09 6258.28 843.47 6255.4 854.84 6252.69 866.24 6251.33 871.322 6250.64 876.559 6250.63 881.82 6250.77 886.656 6251.62 891.446 6253.14 896.04 6254.88 901.247 6257.41 906.155 6260.65 910.59 6261.09 910.995 6261.71 911.156 6262.29 911.02 6262.39 911.66 6262.5 912.29 6262.6 912.93 6262.7 913.57 6262.55 914.13 6262.54 914.73 6260.27 911.311 6257.7 908.104 6254.85 905.15 6246.75 896.25 6241.01 884.87 6231.98 876.98 6227.45 872.98 6222.2 870.07 6216.4 869.27 6215.92 869.21 6213.96 869.38 6214.46 870.43 6224.12 890.54 6234.46 911.66 6252.21 924.57 6256.89 927.97 6262.21 930.96 6265.14 936.44 6265.4 936.8 6265.81 937.021 6266.25 937.04 6266.53 939.04 6266.81 941.013 6267.08 942.96 6268.11 950.453 6269.06 957.957 6269.95 965.47 6269.02 968.063 6268.35 970.743 6267.95 973.47 6267.95 973.66 6267.95 973.85 6267.88 974.05 6267.82 973.84 6267.74 973.64 6267.68 973.43 6266.62 970.039 6265.75 966.594 6265.06 963.11 6264.42 959.88 6263.75 956.6 6262.13 953.77 6260.52 951.181 6258.56 948.826 6256.31 946.77 6254 944.49 6251.66 942.23 6249.31 939.99 6244.61 935.47 6239.84 930.99 6234.85 926.9 6229.28 922.187 6223.31 917.974 6217 914.31 6216.37 913.95 6213.41 914.18 6214.54 915.45 6222.54 924.57 6224.49 938.53 6234.35 945.98 6237.04 947.98 6240.03 949.5 6242.82 951.38 6245.55 953.193 6247.85 955.582 6249.55 958.38 6253.01 964.08 6254.72 970.8 6257.74 976.76 6261.22 983.679 6265.95 989.896 6271.69 995.1 6272.15 995.413 6272.69 995.58 6273.24 995.58 6273.93 1004.44 6275.12 1013.26 6276.8 1021.99 6277.51 1025.39 6278.4 1028.75 6279.46 1032.06 6279.03 1031.59 6278.6 1031.12 6278.14 1030.67 6274.44 1026.93 6269.48 1024.7 6264.23 1024.41 6261.35 1024.35 6258.5 1023.97 6255.7 1023.3 6253.02 1022.51 6250.43 1021.36 6247.77 1020.48 6242.36 1018.74 6236.58 1018.5 6231.04 1019.78 6224.53 1021.2 6218.41 1024.06 6212.36 1026.98 6212 1027.13 6211.83 1027.55 6211.98 1027.91 6212.02 1027.99 6212.06 1028.06 6212.12 1028.12 6220.12 1035.63 6228.66 1043.46 6238.99 1046.66 6241.47 1047.43 6244.03 1047.9 6246.62 1048.06 6249.68 1048.24 6252.72 1047.71 6255.78 1047.75 6261.65 1047.84 6266.89 1051.61 6272.45 1053.21 6277.61 1054.7 6282.45 1054.41 6287.71 1054.83 6294 1055.32 6298.71 1063.29 6301.71 1068.58 6304.47 1073.51 6306.66 1078.73 6308.22 1084.16 6308.93 1086.57 6309.52 1089.01 6310.05 1091.45 6296.13 1082.97 6280.58 1077.54 6264.41 1075.51 6259.64 1074.93 6254.84 1074.65 6250.03 1074.68 6249.03 1074.68 6247.62 1075.91 6249.24 1076.44 6257.88 1079.27 6264.52 1086.44 6271.58 1092.18 6274.89 1095.05 6278.57 1097.46 6282.53 1099.34 6287.31 1101.47 6292.12 1101.62 6297.21 1101.5 6300.29 1101.43 6303.46 1101.44 6306.26 1103.06 6313.35 1107.15 6313.34 1116.33 6313.89 1123.89 6314.57 1133.32 6315.28 1142.77 6317.04 1152.04 6317.63 1155.11 6318.34 1158.22 6319.18 1161.31 6313.74 1155.52 6307.71 1150.32 6301.18 1145.78 6293.33 1140.12 6285.11 1133.78 6275.81 1131.43 6270.87 1130.05 6265.6 1130.57 6261.03 1132.89 6260.66 1133.06 6260.5 1133.5 6260.67 1133.87 6260.75 1134.03 6260.87 1134.16 6261.03 1134.23 6278.5 1142.62 6291.17 1159.23 6308.03 1168.74 6312.65 1171.41 6317.66 1173.35 6322.87 1174.5 6323.17 1174.56 6323.49 1174.56 6323.79 1174.5 6328.21 1184.71 6334.61 1193.74 6343.84 1199.15 6345.74 1200.25 6347.73 1201.19 6349.79 1201.95 6350.51 1202.25 6351.34 1202.12 6351.93 1201.62 6352.39 1201.02 6351.93 1200.53 6351.37 1200.32 6341.37 1196.57 6334.14 1188.41 6329.06 1178.67 6329.45 1178.51 6329.71 1178.24 6329.68 1177.87 6328.27 1164.22 6340.9 1156.3 6347.85 1147.25Z" fill="#7FAFC6"/><path d="M6528.22 1081.32C6526.55 1086.9 6521.69 1090 6517.78 1093.54 6513.79 1097.2 6510.27 1101.34 6507.31 1105.87 6501.25 1115.13 6497.31 1125.61 6495.77 1136.57 6495.77 1136.86 6495.7 1137.16 6495.66 1137.45 6496.23 1133.14 6492.96 1125.71 6492.06 1121.26 6490.89 1115.49 6490.06 1109.54 6490.63 1103.62 6491.82 1091.72 6498.72 1083.16 6505.01 1073.94 6511.75 1064.06 6515.55 1052.74 6517.89 1040.75 6519.21 1033.96 6520.11 1027.08 6520.98 1020.21 6521.13 1019.01 6518.51 1019.1 6518.06 1019.74 6511.64 1028.62 6505.87 1037.95 6500.78 1047.65 6498.22 1052.53 6495.83 1057.51 6493.62 1062.58 6491.25 1067.75 6489.28 1073.1 6487.73 1078.58 6487.36 1079.96 6487.05 1081.37 6486.79 1082.78 6486.21 1081.04 6485.58 1079.34 6484.89 1077.65 6484.68 1075.53 6484.47 1073.4 6484.3 1071.28 6483.66 1063.42 6482.45 1054.43 6485.49 1046.79 6486.72 1043.72 6489 1042.17 6490.68 1039.51 6493.16 1035.56 6494.89 1031.19 6495.8 1026.62 6496.92 1020.37 6495.67 1014 6494.18 1007.96 6492.43 1001.55 6491.09 995.032 6490.18 988.45 6489.3 980.83 6489.18 973.15 6489 965.45 6489 964.03 6486.43 964.45 6485.92 965.19 6479.6 974.84 6480.15 987.25 6479.67 998.54 6479.49 1004.67 6478.58 1010.75 6476.98 1016.67 6475.34 1022.5 6473.26 1028.48 6473.52 1034.67 6473.75 1040.19 6475.77 1045.67 6480.14 1048.67 6480.22 1055.52 6480.52 1062.35 6481.04 1069.18 6476.33 1060.01 6470.53 1051.37 6465.44 1042.62 6462.51 1037.68 6459.88 1032.57 6457.56 1027.32 6457.14 1026.32 6454.56 1026.32 6454.48 1027.57 6453.17 1046.79 6459.73 1065.72 6472.65 1080.01 6475.78 1083.41 6479.3 1086.43 6483.14 1089.01 6483.72 1093.21 6484.38 1097.38 6485.14 1101.55 6486.92 1111.55 6489.27 1121.38 6491.36 1131.31 6486.68 1129 6481.98 1126.53 6478.03 1122.91 6473.24 1118.52 6470.84 1112.63 6468.03 1106.68 6463.32 1096.62 6455.03 1087 6444.19 1086.07 6442.1 1085.89 6438.7 1085.6 6437.38 1087.86 6436.06 1090.12 6438.38 1093.02 6439.8 1094.61 6443.31 1098.61 6446.48 1102.9 6449.28 1107.43 6454.91 1116.2 6460.05 1125.69 6467.47 1132.83 6471.76 1136.85 6476.84 1139.91 6482.39 1141.83 6486.95 1143.51 6492.86 1146.09 6494.87 1151.13 6495.56 1156.1 6496 1161.11 6496.18 1166.13 6494.29 1167.7 6492.65 1169.55 6491.3 1171.61 6488.86 1175.58 6487.51 1180.12 6487.37 1184.78 6487.11 1190.06 6488.46 1195.29 6491.25 1199.78 6491.33 1199.88 6491.42 1199.97 6491.53 1200.04 6491.02 1201.45 6490.47 1202.84 6489.87 1204.21 6489.27 1205.58 6492.4 1205.84 6492.87 1204.71 6493.56 1203.13 6494.18 1201.53 6494.75 1199.92 6494.85 1199.87 6494.94 1199.8 6495.03 1199.73 6509 1186.61 6519.54 1170.27 6525.75 1152.14 6527.52 1147 6528.96 1141.75 6530.06 1136.43 6530.31 1135.21 6527.59 1135.43 6527.13 1135.95 6519.56 1144.88 6511.91 1153.95 6502.77 1161.02 6501.58 1161.94 6500.36 1162.83 6499.16 1163.74 6499.05 1161.67 6498.89 1159.61 6498.7 1157.56 6498.83 1157.42 6498.91 1157.24 6498.91 1157.05 6499.2 1144.55 6511.71 1139.05 6518.79 1131.52 6526.08 1123.57 6530.16 1113.18 6530.22 1102.39 6530.28 1095.54 6528.91 1088.39 6531.22 1081.82 6531.66 1080.43 6528.62 1080.18 6528.22 1081.32Z" fill="#7FAFC6"/><path d="M6635.74 939.35C6627.01 945.49 6618.27 951.64 6609.17 957.11 6604.81 959.73 6600.32 962.03 6595.91 964.54 6593.91 965.668 6591.97 966.906 6590.11 968.25 6590.47 966.89 6590.79 965.52 6591.11 964.15 6592.74 956.128 6593.81 948.001 6594.3 939.83 6594.45 939.762 6594.6 939.679 6594.73 939.58 6598.21 936.82 6602.52 935.97 6606.66 935.17 6610.8 934.37 6615.1 933.53 6618.93 931.39 6626.59 927.1 6631.54 918.7 6634.16 909.97 6635.8 904.061 6636.92 898.022 6637.52 891.92 6637.67 890.68 6635.07 890.86 6634.6 891.45 6623.78 904.76 6605.94 910.67 6598.12 927.01 6597.12 929.12 6596.5 931.52 6595.25 933.49 6595.08 933.751 6594.88 933.999 6594.67 934.23 6594.67 933.78 6594.73 933.33 6594.75 932.89 6594.85 932.748 6594.9 932.582 6594.91 932.41 6595.3 921.35 6603.25 913.09 6608.34 904.27 6611.37 899.16 6613.2 893.43 6613.69 887.51 6614.25 880.31 6613.4 873.02 6612.88 865.85L6611 840.14C6610.9 838.78 6608.43 839.03 6607.92 839.89 6602.21 849.54 6596.51 859.32 6592.61 870.04 6588.59 880.715 6587.25 892.217 6588.73 903.53 6589.6 909.212 6590.78 914.841 6592.28 920.39 6592.18 922.75 6592.06 925.12 6591.94 927.48 6589.83 924.096 6587.92 920.598 6586.2 917 6583.68 911.61 6582.42 905.88 6580.63 900.2 6577.58 890.57 6570.9 883.82 6563.03 878.78 6558.6 876.031 6554 873.569 6549.25 871.41 6548.56 871.029 6547.72 871.029 6547.03 871.41 6546.52 871.75 6546.39 872.41 6547.03 872.75 6551.31 874.86 6552.36 880.75 6553.52 885.2 6554.93 890.901 6556.8 896.479 6559.11 901.88 6563.58 911.94 6570.57 920.34 6579.65 925.58 6583.27 927.66 6587.82 929.1 6590.06 933.33 6593.06 939.06 6590.45 948.68 6589.58 954.85 6588.79 960.669 6587.52 966.413 6585.77 972.02 6585.43 972.38 6585.09 972.74 6584.77 973.12 6583.41 974.691 6582.25 976.42 6581.3 978.27 6580.41 971.807 6578.29 965.572 6575.07 959.9 6572.73 955.671 6570.18 951.566 6567.42 947.6 6564.78 943.73 6562.13 939.86 6559.29 936.16 6556.82 932.95 6551.92 925.36 6548.02 924.33 6543.15 923.06 6547.48 934.01 6548.31 935.67 6551.31 941.58 6552.6 948.18 6555.38 954.26 6557.36 958.581 6559.77 962.695 6562.56 966.54 6565.21 970.19 6568.28 973.38 6571.19 976.77 6574.25 980.35 6577.13 984.35 6578.19 989.19 6574.32 995.85 6569.86 1002.07 6565.7 1008.52 6564.73 1009.44 6563.88 1010.48 6563.19 1011.62 6563.03 1011.84 6563.07 1012.14 6563.29 1012.31 6563.3 1012.31 6563.3 1012.32 6563.31 1012.32 6562.71 1013.32 6562.12 1014.32 6561.54 1015.32 6561.96 1011.78 6563.42 1008.22 6563.05 1004.64 6562.67 1002.04 6561.75 999.556 6560.35 997.34 6558.9 994.81 6557.35 992.34 6555.81 989.88 6550.55 981.27 6545.6 971.69 6538.4 964.79 6534.92 961.301 6530.52 958.873 6525.71 957.79 6525.09 957.67 6523.45 957.89 6523.78 958.96 6529.29 977.277 6537.32 994.737 6547.64 1010.84 6550.48 1015.26 6553.5 1019.56 6556.64 1023.71 6556.76 1023.86 6556.92 1023.98 6557.11 1024.03 6551.32 1037.21 6548.72 1051.62 6547.76 1066.21 6542.47 1048.67 6532.95 1032.7 6520.05 1019.7 6516.27 1015.95 6511.96 1011.34 6506.66 1010.7 6506.11 1010.64 6504.32 1010.78 6504.73 1011.87 6507.1 1018.22 6509.48 1024.57 6511.85 1030.92 6514.06 1036.83 6516.06 1042.92 6518.75 1048.62 6520.88 1053.15 6523.84 1057.24 6527.47 1060.68 6530.82 1063.9 6534.47 1066.68 6537.93 1069.77 6541.72 1073.18 6545.19 1077.01 6547.22 1081.98 6547.22 1081.98 6547.27 1082.05 6547.3 1082.11 6547.3 1095.51 6548.3 1108.89 6548.74 1122.27 6545.21 1116.92 6539.64 1113.17 6534.63 1109.7 6526.19 1103.84 6517.55 1098.33 6508.71 1093.17 6503.75 1090.27 6498.73 1087.49 6493.66 1084.83 6493.02 1084.48 6492.26 1084.45 6491.6 1084.75 6491.14 1084.99 6490.74 1085.46 6491.2 1085.97 6495.03 1090.25 6497.68 1095.5 6500.52 1100.57 6503.11 1105.51 6506.44 1110.02 6510.39 1113.96 6514.19 1117.6 6518.63 1120.51 6523.48 1122.54 6528.02 1124.44 6532.84 1125.27 6537.48 1126.61 6541.67 1127.81 6545.93 1129.48 6548.96 1132.91 6549.01 1138.11 6548.96 1143.32 6548.69 1148.53 6548.25 1160.29 6546.41 1171.96 6543.22 1183.29L6542.96 1183.55C6539.59 1175.62 6534.14 1169 6528.38 1163.01 6521.97 1156.35 6515.17 1149.09 6506.91 1145.3 6502.5 1143.13 6497.44 1142.67 6492.71 1144.01 6491.93 1144.24 6491.71 1145.01 6492.39 1145.5 6496.2 1148.14 6499.62 1151.3 6502.57 1154.87 6505.57 1158.68 6508.18 1162.79 6510.35 1167.13 6512.39 1171.31 6514.85 1175.26 6517.7 1178.93 6520.46 1182.23 6523.93 1184.88 6527.84 1186.68 6532.02 1188.63 6536.62 1189.53 6541.23 1189.29 6539.03 1195.38 6536.1 1201.18 6532.5 1206.56 6531.07 1208.66 6529.53 1210.69 6527.88 1212.62 6526.88 1213.83 6529.88 1214.44 6530.59 1213.62 6537.89 1205.04 6542.86 1194.85 6546.17 1183.96 6552.95 1177.36 6563.81 1178.18 6572.23 1176.45 6577.58 1175.51 6582.52 1173 6586.42 1169.22 6590.16 1165.48 6592.66 1160.8 6595.15 1156.04 6596.93 1152.63 6599.42 1147.79 6603.08 1146.37 6604.02 1146.22 6604.95 1146.06 6605.9 1145.93 6606.37 1145.87 6607.12 1145.54 6607.02 1144.93 6606.92 1144.32 6605.94 1144.13 6605.48 1144.1 6604.29 1144.05 6603.1 1144.23 6601.98 1144.62 6593.69 1145.96 6585.66 1148.62 6578.2 1152.48 6573.77 1154.92 6569.48 1157.59 6565.33 1160.48 6561.77 1162.78 6558.35 1165.31 6555.11 1168.04 6552.6 1170.2 6550.35 1172.64 6548.41 1175.33 6549.66 1169.63 6550.57 1163.86 6551.13 1158.05 6551.78 1151.47 6552.04 1144.89 6552.08 1138.32 6552.89 1138.59 6554.13 1138.48 6554.48 1137.82 6558.26 1130.62 6566.89 1129.54 6573.48 1127.2 6577.06 1126.11 6580.35 1124.22 6583.11 1121.69 6586.71 1118.08 6587.82 1112.92 6588.86 1107.9 6590.45 1100.27 6592.04 1092.64 6593.62 1084.99 6593.9 1083.67 6590.99 1083.99 6590.54 1084.74 6585.9 1092.28 6577.39 1095.25 6570.88 1100.34 6564.14 1105.68 6558.71 1112.49 6555.02 1120.26 6553.84 1122.74 6552.84 1125.3 6552.02 1127.92 6551.73 1115.99 6550.96 1104.06 6550.62 1092.12 6550.51 1088.58 6550.45 1085 6550.45 1081.42 6550.45 1081.42 6550.45 1081.42 6550.45 1081.42 6550.68 1081.37 6550.9 1081.26 6551.06 1081.09 6553.88 1077.9 6558.66 1078.3 6562.38 1077.53 6566.33 1076.72 6570.18 1075.44 6573.83 1073.73 6581.24 1070.25 6587.81 1065.21 6593.09 1058.96 6596.17 1055.31 6598.79 1051.31 6600.91 1047.03 6601.57 1045.71 6598.77 1045.85 6598.29 1046.11L6573.24 1059.67C6566.55 1063.29 6559.24 1066.5 6553.43 1071.81 6552.36 1072.78 6551.38 1073.86 6550.5 1075.01 6550.89 1057.62 6553.13 1040.21 6560.17 1024.47 6560.74 1023.21 6561.33 1021.97 6561.95 1020.74 6564.81 1018.18 6568.24 1016.34 6571.95 1015.36 6576.08 1014.31 6580.07 1014.84 6584.22 1015.45 6588.37 1016.06 6592.22 1016.29 6596.22 1014.97 6599.56 1013.75 6602.62 1011.87 6605.22 1009.43 6608.35 1006.48 6611.23 1003.26 6613.81 999.81 6614.81 998.54 6612.27 998.34 6611.66 998.52 6606.63 999.99 6601.5 1001.1 6596.31 1001.83 6591.76 1002.47 6587.21 1002.65 6582.65 1002.99 6578.82 1003.16 6575.03 1003.89 6571.41 1005.15 6573.52 1001.99 6575.64 998.85 6577.69 995.66 6578.69 994.11 6579.69 992.54 6580.6 990.95 6581.17 990.84 6581.6 990.54 6581.53 990.07L6581.41 989.56C6582.28 988.06 6583.12 986.56 6583.91 985 6591.11 980.17 6600.01 978.92 6608.05 976.63 6612.54 975.504 6616.82 973.675 6620.74 971.21 6624.99 968.274 6628.28 964.148 6630.2 959.35 6632.82 953.11 6634.07 945.98 6638.2 940.64 6639.23 939.18 6636.41 938.88 6635.74 939.35Z" fill="#7FAFC6"/><path d="M6410.07 1115.11C6409.78 1114 6407.46 1114.3 6407.07 1115.11 6402.4 1124.13 6397.11 1132.81 6391.26 1141.11 6388.45 1145.06 6385.42 1148.81 6382.55 1152.71 6379.64 1156.43 6377.45 1160.65 6376.08 1165.17 6375.72 1166.45 6375.44 1167.76 6375.24 1169.08 6371.91 1155.36 6370.33 1141.28 6370.54 1127.16 6370.89 1127.05 6371.16 1126.75 6371.23 1126.39 6371.31 1125.91 6371.43 1125.43 6371.6 1124.97 6372.06 1124.93 6372.41 1124.55 6372.4 1124.09 6372.4 1123.81 6372.4 1123.54 6372.45 1123.26 6373.96 1121.11 6376.11 1119.5 6378.6 1118.67 6382.66 1117.18 6387.02 1116.82 6390.82 1114.54 6397.56 1110.54 6400.82 1102.12 6401.54 1094.08 6402.05 1088.18 6401.37 1082.27 6400.71 1076.42 6400.56 1075.14 6398.42 1075.33 6397.78 1075.94 6394.17 1079.24 6390.81 1082.8 6387.73 1086.6 6384.85 1090.54 6382.48 1094.83 6380.67 1099.37 6379.67 1101.72 6378.67 1104.07 6377.45 1106.3 6376.37 1108.3 6375.11 1110.13 6373.89 1112 6372.8 1113.6 6371.83 1115.27 6370.97 1117 6371.51 1109.35 6372.35 1101.72 6372.63 1094 6372.84 1087.85 6372.6 1081.69 6371.9 1075.58 6376.76 1052.83 6380.41 1029.83 6382.83 1006.69 6382.96 1005.38 6380.17 1005.6 6379.74 1006.44 6374.74 1016.26 6369.74 1026.04 6364.82 1035.9L6364.63 1036.28C6363.68 1031.61 6362.72 1026.92 6361.77 1022.21 6361.77 1022 6361.82 1021.78 6361.84 1021.56 6361.92 1021.45 6361.96 1021.32 6361.96 1021.18 6361.96 1021.09 6361.94 1021 6361.91 1020.92 6362.08 1019.17 6362.42 1017.44 6362.91 1015.76 6363.6 1013.62 6364.72 1011.65 6366.21 1009.97 6368.91 1007.03 6371.28 1003.81 6373.29 1000.37 6377.24 992.952 6378.98 984.556 6378.29 976.18 6378.19 974.95 6375.58 974.88 6375.21 975.93 6374.09 979.125 6372.62 982.187 6370.83 985.06 6369.12 987.614 6367.25 990.056 6365.23 992.37 6362.96 994.919 6361.05 997.773 6359.57 1000.85 6357.76 993.01 6357.18 984.85 6356.46 976.85 6356.02 971.79 6355.51 966.74 6354.61 961.75 6353.66 956.649 6352.44 951.602 6350.95 946.63 6349.28 940.97 6347.37 935.39 6345.47 929.82 6345.08 928.68 6341.99 928.95 6342.47 930.32 6345.35 939.06 6342.19 948.32 6340.47 956.97 6339.48 961.32 6339.19 965.799 6339.61 970.24 6340.23 974.629 6341.73 978.849 6344.01 982.65 6346.64 986.947 6349.62 991.021 6352.92 994.83 6352.97 994.885 6353.03 994.935 6353.09 994.98L6356.34 1010.98C6350.05 998.853 6341.62 987.959 6331.47 978.82 6327.76 975.51 6323.82 972.462 6319.68 969.7 6319.18 969.37 6316.37 969.4 6317.05 970.62 6322.2 979.76 6327.53 988.76 6333.05 997.62 6337.6 1004.91 6342.05 1013.05 6348.79 1018.22 6351.49 1020.38 6354.76 1021.72 6358.2 1022.08 6358.33 1022.43 6358.48 1022.76 6358.61 1023.08 6358.67 1023.22 6358.77 1023.35 6358.89 1023.44 6360.1 1029.26 6361.31 1035.08 6362.52 1040.89 6361.33 1043.67 6360.54 1046.6 6360.16 1049.6 6359.72 1053.77 6360.14 1057.99 6361.41 1061.99 6361.53 1062.36 6361.67 1062.73 6361.8 1063.1 6353.67 1053.35 6344.39 1044.62 6334.16 1037.1 6333.65 1036.73 6330.8 1036.9 6331.53 1038.02 6341.42 1053.07 6353.88 1066.27 6368.32 1077.02 6368.5 1077.14 6368.71 1077.22 6368.93 1077.24 6369.32 1080.95 6369.56 1084.67 6369.58 1088.41 6369.58 1096.24 6368.86 1104.03 6368.22 1111.82 6363.01 1094.9 6350.73 1081.5 6337.87 1070.82 6333.29 1067.02 6328.56 1063.43 6323.87 1059.82 6323.35 1059.42 6320.63 1059.51 6321.25 1060.74 6330.61 1079.47 6342.61 1096.76 6356.89 1112.08 6360.34 1115.76 6363.9 1119.3 6367.59 1122.69 6367.07 1134.78 6367.84 1146.9 6369.9 1158.83 6371.05 1165.29 6372.59 1171.67 6374.51 1177.94 6370.14 1171.73 6365.31 1165.86 6360.05 1160.39 6353.5 1153.61 6345.97 1147.24 6336.83 1145.66 6331.77 1144.69 6326.52 1145.51 6322 1147.98 6321.64 1148.14 6321.47 1148.56 6321.63 1148.93 6321.66 1149 6321.7 1149.07 6321.76 1149.13L6345.62 1171.95C6349.09 1175.27 6352.47 1178.95 6356.39 1181.59 6359.77 1183.82 6363.71 1185.05 6367.76 1185.14 6371.15 1185.35 6375.4 1185.14 6377.93 1187.97 6380.17 1193.93 6382.78 1199.75 6385.73 1205.4 6386.3 1206.48 6389.38 1206.08 6388.73 1204.9 6385.99 1199.66 6383.56 1194.27 6381.44 1188.75 6381.58 1188.58 6381.58 1188.34 6381.44 1188.17 6381.28 1187.93 6381.1 1187.73 6380.93 1187.52 6380.33 1185.93 6379.76 1184.33 6379.22 1182.74 6381.16 1173.32 6390.44 1167.83 6396.72 1162.01 6404.62 1154.49 6409.69 1144.48 6411.08 1133.67 6411.93 1127.48 6411.59 1121.18 6410.07 1115.11Z" fill="#7FAFC6"/><path d="M6478.58 905.19C6475.67 903.4 6472.29 904.48 6469.98 906.84 6468.67 908.17 6467.59 909.75 6466.31 911.11 6464.89 912.584 6463.34 913.923 6461.68 915.11 6458.48 917.41 6455.04 919.27 6451.68 921.27 6447.19 923.95 6442.49 927.27 6439.26 931.74 6439.39 930.37 6439.51 928.99 6439.61 927.62 6445.34 914.677 6446.58 900.191 6443.15 886.46 6441.62 880.951 6439.59 875.595 6437.07 870.46 6434.4 864.63 6431.67 858.79 6430.07 852.46 6429.8 851.36 6427.07 851.54 6426.99 852.72 6425.96 863.641 6425.63 874.617 6425.99 885.58 6426.32 895.15 6426.99 904.87 6429.34 914.13 6425.23 906.569 6420.07 899.632 6414 893.53 6411.15 890.68 6408 887.45 6403.88 888.1 6403.38 888.17 6402.22 888.79 6402.94 889.48 6408.54 894.91 6410.23 903.48 6413.42 910.57 6416.68 917.842 6420.97 924.603 6426.17 930.64 6428.95 933.837 6431.98 936.8 6435.24 939.5 6434.91 942.06 6434.54 944.61 6434.15 947.15 6432.22 959.37 6429.58 971.41 6426.88 983.44 6426.71 983.76 6426.55 984.09 6426.39 984.44 6424.8 976.799 6421.25 969.706 6416.08 963.86 6412.76 960.19 6408.88 957.2 6405.51 953.58 6403.79 951.806 6402.32 949.808 6401.14 947.64 6400.1 945.546 6399.32 943.333 6398.82 941.05 6397.67 936.45 6396.64 931.05 6392.28 928.87 6391.63 928.54 6390.02 928.31 6389.66 929.29 6387.66 934.55 6389.87 940.06 6391.99 944.83 6394.23 949.855 6396.79 954.738 6399.63 959.45 6402.41 964.056 6405.47 968.488 6408.79 972.72 6412.2 977.06 6415.98 980.91 6419.64 984.99 6421.53 987.028 6423.08 989.354 6424.23 991.88 6424.23 992.55 6424.29 993.23 6424.29 993.88 6424.29 994.05 6424.35 994.214 6424.45 994.35 6424.19 995.54 6423.93 996.73 6423.68 997.92 6423.32 998.071 6423.16 998.482 6423.31 998.838 6423.31 998.839 6423.31 998.839 6423.31 998.84L6423.42 999.12C6422.67 1002.56 6421.95 1006 6421.25 1009.45 6419.13 1019.72 6417.55 1030.09 6416.5 1040.53 6412.41 1035.23 6411.77 1027.08 6410.17 1020.66 6409.06 1016.16 6407.12 1011.91 6404.43 1008.14 6401.5 1003.96 6398.33 999.952 6394.94 996.14 6391.46 992.048 6387.17 988.719 6382.34 986.36 6381.89 986.15 6379.34 986.36 6380.04 987.42 6382.79 991.42 6383.98 996.19 6384.97 1000.98 6385.85 1005.9 6387.19 1010.72 6388.97 1015.39 6391.04 1020.22 6393.44 1024.9 6396.16 1029.39 6398.53 1033.46 6400.74 1037.73 6404.73 1040.1 6408.29 1042.22 6413.08 1043.1 6415.43 1047.03 6415.56 1047.22 6415.74 1047.38 6415.95 1047.48 6415.37 1056.02 6415.39 1064.6 6416.01 1073.14 6416.98 1084.74 6418.62 1096.28 6420.91 1107.69 6418.06 1102.01 6415.54 1096.11 6411.7 1091.07 6406.68 1084.5 6400.12 1079.25 6392.61 1075.79 6388.45 1073.88 6384.03 1072.6 6379.5 1071.99 6379 1071.93 6377.11 1072.09 6377.57 1073.16 6384.66 1089.34 6393.78 1105.96 6409.57 1113.29 6413.63 1115.2 6418.02 1116.29 6422.5 1116.52 6422.57 1116.52 6422.64 1116.52 6422.71 1116.52 6424.15 1123.52 6425.71 1130.52 6427.13 1137.52 6429.32 1148.01 6431.42 1158.59 6432.92 1169.26 6432.92 1169.33 6432.92 1169.4 6432.92 1169.48 6430.59 1164.67 6427.54 1160.25 6423.87 1156.37 6417.5 1149.88 6409.38 1147.45 6401.19 1144.99L6384.83 1140.07C6384.04 1139.83 6381.39 1140.41 6382.93 1141.56 6397.26 1152.24 6406.44 1170.24 6423.4 1176.77 6426.81 1178.11 6430.45 1178.79 6434.12 1178.77 6434.96 1186.55 6435.31 1194.37 6435.17 1202.19 6435.11 1204.89 6434.98 1207.59 6434.79 1210.28 6434.7 1211.54 6437.79 1211.61 6437.93 1210.28 6438.62 1199.71 6438.38 1189.1 6437.21 1178.57L6437.3 1178.57C6437.81 1178.51 6438.66 1178.12 6438.4 1177.41 6438.26 1177.08 6437.96 1176.86 6437.61 1176.81 6439.78 1173.5 6440.69 1169.42 6442.55 1165.87 6443.6 1163.65 6445.44 1161.9 6447.72 1160.97 6450.14 1160.05 6452.72 1159.9 6455.25 1159.37 6464.92 1157.37 6471.12 1148.43 6473.25 1138.3 6474.81 1130.97 6474.48 1123.38 6474.15 1115.92 6474.09 1114.63 6471.48 1114.71 6471.07 1115.67 6463.62 1132.67 6446.59 1140.88 6437.52 1156.55 6436.52 1158.28 6435.66 1160.09 6434.93 1161.95 6434.03 1156.45 6433.01 1150.95 6431.93 1145.55 6429.93 1135.55 6427.69 1125.55 6425.64 1115.46 6427.12 1107.21 6434.06 1102.07 6439.64 1097.03 6442.72 1094.41 6445.43 1091.38 6447.69 1088.03 6450.49 1083.58 6451.85 1078.32 6453 1073.14 6454.52 1066.25 6455.95 1059.33 6457.41 1052.43 6457.68 1051.18 6454.76 1051.36 6454.33 1052.18 6449.75 1060.85 6445.04 1069.26 6438.43 1076.28 6432.43 1082.64 6425.57 1088.66 6422.71 1097.57 6422.62 1097.86 6422.54 1098.17 6422.46 1098.46 6421.46 1092.6 6420.59 1086.7 6419.94 1080.76 6418.86 1071.2 6418.5 1061.57 6418.85 1051.95 6419.11 1051.88 6419.36 1051.75 6419.57 1051.58L6431.57 1041.06C6435.1 1037.96 6438.75 1034.97 6442.06 1031.59 6445.16 1028.62 6447.59 1025.03 6449.18 1021.04 6450.48 1017.4 6450.61 1013.47 6450.94 1009.62 6451.27 1005.77 6451.74 1001.62 6454.49 999.06L6455.3 998.4C6455.83 997.97 6455.3 997.4 6454.89 997.18 6454.23 996.86 6453.46 996.89 6452.83 997.26 6452.74 997.32 6452.68 997.39 6452.59 997.45 6440.59 1007.27 6428.08 1017.59 6420.59 1032.17 6421.27 1027.03 6422.11 1021.92 6423.04 1016.84 6423.79 1012.75 6425.04 1008.39 6425.83 1004.6 6426.55 1001.11 6425.96 995.88 6428.2 993.09 6430.44 990.3 6434.93 988.35 6437.8 986.45 6441.19 984.217 6444.39 981.709 6447.36 978.95 6453.42 973.259 6458.53 966.623 6462.47 959.3 6464.76 955.057 6466.66 950.616 6468.15 946.03 6468.64 944.53 6465.86 944.78 6465.28 945.3 6457.42 952.3 6449.52 959.19 6441.71 966.24 6438.08 969.406 6434.71 972.861 6431.63 976.57 6433.28 969.05 6434.87 961.51 6436.22 953.91 6436.81 950.623 6437.35 947.317 6437.83 943.99 6437.95 943.953 6438.06 943.909 6438.17 943.86 6452.83 935.67 6466.2 925.355 6477.84 913.25 6479.04 912.01 6480.55 910.54 6480.56 908.58 6480.56 907.174 6479.81 905.877 6478.58 905.19Z" fill="#7FAFC6"/><path d="M6299.75 1190.38C6307.87 1231.7 6338.54 1260.97 6373.92 1260.97L6492.62 1260.97C6528 1260.97 6558.67 1231.7 6566.79 1190.38Z" fill="#2F4A79"/><rect x="5740.37" y="3611.94" width="39.63" height="202.59" fill="#FFBE7C"/><rect x="5692.96" y="1260.15" width="466.96" height="2449.4" fill="#FFBE7C"/><rect x="5718.78" y="1298.75" width="415.24" height="307.12" fill="#F49262"/><rect x="5718.78" y="1634.76" width="415.24" height="307.12" fill="#F49262"/><rect x="5718.78" y="1970.77" width="415.24" height="307.17" fill="#F49262"/><path d="M6139.68 3664.83 5713.53 3664.83 5713.53 2307.25 6139.68 2307.25ZM5724.91 3653.44 6128.29 3653.44 6128.29 2318.63 5724.91 2318.63Z" fill="#F49262"/><path d="M6087.47 2986C6087.47 3011 6080.81 3031.3 6072.61 3031.3 6064.41 3031.3 6057.75 3011.01 6057.75 2986 6057.75 2960.99 6064.4 2940.7 6072.61 2940.7 6080.82 2940.7 6087.47 2961 6087.47 2986Z" fill="#F49262"/><path d="M5911.01 2277.96 5877.21 2277.96 5843.41 2103.91 5877.21 2103.91 5911.01 2277.96Z" fill="#7FAFC6"/><path d="M5826.5 2277.96 5782.56 2277.96 5762.28 2052.07 5806.22 2052.07 5826.5 2277.96Z" fill="#D7EEFE"/><path d="M5782.56 2277.96 5738.62 2277.96 5718.34 2052.07 5762.28 2052.07 5782.56 2277.96Z" fill="#7FAFC6"/><path d="M6073.26 2277.96 6049.59 2277.96 6005.65 2070.58 6029.31 2070.58 6073.26 2277.96Z" fill="#D7EEFE"/><path d="M6002.27 2277.96 5958.33 2277.96 5938.05 2052.07 5981.99 2052.07 6002.27 2277.96Z" fill="#D7EEFE"/><path d="M6046.21 2277.96 6022.55 2277.96 5981.99 2059.47 6005.65 2059.47 6046.21 2277.96Z" fill="#7FAFC6"/><path d="M5958.33 2277.96 5914.39 2277.96 5894.1 2052.07 5938.05 2052.07 5958.33 2277.96Z" fill="#7FAFC6"/><path d="M5860.31 2277.96 5826.5 2277.96 5809.6 2089.1 5843.41 2089.1 5860.31 2277.96Z" fill="#7FAFC6"/><rect x="6538.97" y="3611.94" width="39.63" height="202.59" fill="#FFBE7C" transform="matrix(-1 1.22465e-16 -1.22465e-16 -1 13117.6 7426.48)"/><rect x="6159.22" y="1260.15" width="466.72" height="2449.4" fill="#FFBE7C"/><rect x="6184.94" y="1298.75" width="415.24" height="307.12" fill="#F49262"/><rect x="6184.94" y="1634.76" width="415.24" height="307.12" fill="#F49262"/><rect x="6184.94" y="1970.77" width="415.24" height="307.17" fill="#F49262"/><path d="M6605.43 3664.83 6179.28 3664.83 6179.28 2307.25 6605.43 2307.25ZM6190.67 3653.44 6594.05 3653.44 6594.05 2318.63 6190.67 2318.63Z" fill="#F49262"/><path d="M6231.49 2986C6231.49 3011 6238.14 3031.3 6246.35 3031.3 6254.56 3031.3 6261.21 3011.01 6261.21 2986 6261.21 2960.99 6254.56 2940.7 6246.35 2940.7 6238.14 2940.7 6231.49 2961 6231.49 2986Z" fill="#F49262"/><path d="M6407.95 2277.96 6441.75 2277.96 6475.55 2103.91 6441.75 2103.91 6407.95 2277.96Z" fill="#7FAFC6"/><path d="M6492.45 2277.96 6536.4 2277.96 6556.68 2052.07 6512.74 2052.07 6492.45 2277.96Z" fill="#7FAFC6"/><path d="M6536.4 2277.96 6580.34 2277.96 6600.62 2052.07 6556.68 2052.07 6536.4 2277.96Z" fill="#D7EEFE"/><path d="M6360.63 2277.96 6404.57 2277.96 6424.85 2052.07 6380.91 2052.07 6360.63 2277.96Z" fill="#7FAFC6"/><path d="M6458.65 2277.96 6492.45 2277.96 6509.36 2089.1 6475.55 2089.1 6458.65 2277.96Z" fill="#D7EEFE"/><path d="M6538.77 1565.78 6538.67 1565.78C6536.06 1566.34 6532.92 1566 6530.18 1566L6302.85 1566C6299.59 1566 6295.97 1566.47 6292.74 1566 6292.18 1565.93 6290.87 1566.31 6290.37 1566 6287.87 1564.4 6288.66 1559.55 6289.89 1555.1 6290.67 1552.3 6291.61 1549.66 6292.06 1548.1 6294.01 1541.02 6294.85 1533.68 6294.56 1526.34 6294.37 1523.17 6293.88 1520.03 6293.09 1516.96 6292.15 1513.46 6291.55 1509.88 6291.28 1506.26 6292.05 1506.26 6292.81 1506.19 6293.57 1506.06 6296.45 1504.93 6301.82 1506.06 6304.88 1506.06L6482 1506.06C6500.5 1506.06 6520.18 1504.06 6538.54 1506.2 6539.04 1509.82 6538.7 1513.5 6537.54 1516.96 6536.96 1518.96 6536.29 1520.96 6535.73 1523.05 6533.64 1530.63 6533.44 1538.61 6535.14 1546.29 6535.78 1549.16 6536.81 1552.12 6537.65 1555.12 6538.63 1558.68 6539.36 1562.28 6538.77 1565.78Z" fill="#D7EEFE"/><path d="M6537.66 1555.12 6289.89 1555.12C6290.67 1552.32 6291.61 1549.68 6292.06 1548.12 6294.01 1541.04 6294.85 1533.7 6294.56 1526.36 6294.37 1523.19 6293.88 1520.05 6293.09 1516.98L6537.55 1516.98C6536.97 1518.98 6536.3 1520.98 6535.74 1523.07 6533.65 1530.65 6533.45 1538.63 6535.15 1546.31 6535.79 1549.16 6536.82 1552.12 6537.66 1555.12Z" fill="#FFFFFF"/><path d="M6523.09 1507.19C6522.99 1507.3 6522.87 1507.39 6522.73 1507.46 6522.4 1507.62 6521.73 1507.46 6521.43 1507.46L6254.73 1507.46C6251.4 1507.46 6248.73 1503.91 6248.73 1499.54L6248.73 1474.88C6248.73 1470.51 6251.44 1466.96 6254.73 1466.96L6519.45 1466.96C6520.27 1466.96 6521.97 1466.51 6522.75 1466.96 6522.9 1467.05 6523.07 1466.96 6523.24 1467.03 6523.74 1468.96 6523.1 1471.35 6522.24 1473.71 6521.38 1476.07 6520.39 1478.14 6519.95 1479.87 6518.61 1485.22 6518.64 1490.83 6520.05 1496.17 6520.56 1498.34 6521.28 1500.46 6522.21 1502.49 6522.29 1502.65 6522.38 1502.81 6522.47 1502.96 6523.14 1504.2 6524.24 1506 6523.09 1507.19Z" fill="#7FAFC6"/><path d="M6522.44 1503 6438.66 1503C6436.1 1503 6434.03 1500.28 6434.03 1496.93L6434.03 1479.83C6434.03 1476.47 6436.1 1473.75 6438.66 1473.75L6522.21 1473.75C6521.39 1475.98 6520.36 1478.18 6519.92 1479.91 6518.58 1485.26 6518.61 1490.87 6520.02 1496.21 6520.53 1498.38 6521.25 1500.5 6522.18 1502.53 6522.26 1502.69 6522.34 1502.85 6522.44 1503Z" fill="#FFFFFF"/><path d="M6523.09 1606.2C6522.99 1606.31 6522.86 1606.4 6522.73 1606.47 6522.4 1606.63 6521.73 1606.47 6521.43 1606.47L6254.73 1606.47C6251.4 1606.47 6248.73 1602.92 6248.73 1598.55L6248.73 1573.89C6248.73 1569.52 6251.44 1565.97 6254.73 1565.97L6519.45 1565.97C6520.27 1565.97 6521.97 1565.52 6522.75 1565.97 6522.9 1566.06 6523.07 1565.97 6523.24 1566.04 6523.74 1567.97 6523.1 1570.36 6522.24 1572.72 6521.38 1575.08 6520.39 1577.15 6519.95 1578.88 6518.61 1584.23 6518.64 1589.84 6520.05 1595.18 6520.56 1597.35 6521.28 1599.47 6522.21 1601.5 6522.29 1601.66 6522.38 1601.82 6522.47 1601.97 6523.14 1603.21 6524.24 1605 6523.09 1606.2Z" fill="#7FAFC6"/><path d="M6522.44 1602 6395.6 1602C6391.24 1602 6387.69 1599.28 6387.69 1595.93L6387.69 1578.82C6387.69 1575.47 6391.24 1572.75 6395.6 1572.75L6522.21 1572.75C6521.39 1574.97 6520.36 1577.18 6519.92 1578.91 6518.58 1584.26 6518.61 1589.87 6520.02 1595.21 6520.53 1597.38 6521.25 1599.5 6522.18 1601.53 6522.26 1601.69 6522.34 1601.85 6522.44 1602Z" fill="#FFFFFF"/><path d="M5884.7 1606.17 5828.86 1325.81 5793.86 1334.77 5847.92 1606.17 5884.7 1606.17Z" fill="#7FAFC6"/><path d="M5810.27 1606.17 5753.35 1320.43 5718.35 1329.4 5773.48 1606.17 5810.27 1606.17Z" fill="#7FAFC6"/><path d="M5847.45 1606.17 5791.54 1325.46 5756.54 1334.42 5810.66 1606.17 5847.45 1606.17Z" fill="#D7EEFE"/><path d="M6047.36 1941.9 6047.26 1941.9C6044.65 1942.46 6041.51 1942.12 6038.76 1942.12L5811.44 1942.12C5808.18 1942.12 5804.56 1942.59 5801.33 1942.12 5800.77 1942.05 5799.46 1942.43 5798.96 1942.12 5796.46 1940.52 5797.25 1935.67 5798.48 1931.22 5799.26 1928.42 5800.2 1925.79 5800.64 1924.22 5802.59 1917.14 5803.44 1909.8 5803.15 1902.46 5802.96 1899.29 5802.46 1896.15 5801.67 1893.08 5800.74 1889.58 5800.14 1885.99 5799.87 1882.38 5800.63 1882.38 5801.4 1882.31 5802.15 1882.18 5805.04 1881.05 5810.41 1882.18 5813.46 1882.18L5990.58 1882.18C6009.08 1882.18 6028.76 1880.18 6047.12 1882.33 6047.62 1885.94 6047.28 1889.62 6046.12 1893.08 6045.54 1895.08 6044.87 1897.13 6044.3 1899.17 6042.21 1906.75 6042.02 1914.73 6043.72 1922.41 6044.36 1925.28 6045.39 1928.24 6046.23 1931.24 6047.22 1934.8 6047.94 1938.4 6047.36 1941.9Z" fill="#D7EEFE"/><path d="M6046.25 1931.24 5798.48 1931.24C5799.26 1928.44 5800.2 1925.81 5800.64 1924.24 5802.59 1917.16 5803.44 1909.82 5803.15 1902.48 5802.96 1899.31 5802.46 1896.17 5801.67 1893.1L6046.14 1893.1C6045.56 1895.1 6044.89 1897.15 6044.32 1899.19 6042.23 1906.77 6042.04 1914.75 6043.74 1922.43 6044.38 1925.28 6045.41 1928.24 6046.25 1931.24Z" fill="#FFFFFF"/><path d="M6031.68 1883.31C6031.58 1883.42 6031.46 1883.51 6031.32 1883.58 6030.99 1883.74 6030.32 1883.58 6030.01 1883.58L5763.32 1883.58C5759.99 1883.58 5757.32 1880.03 5757.32 1875.66L5757.32 1851C5757.32 1846.63 5760.03 1843.08 5763.32 1843.08L6028 1843.08C6028.82 1843.08 6030.52 1842.63 6031.29 1843.08 6031.45 1843.17 6031.62 1843.08 6031.79 1843.15 6032.29 1845.08 6031.65 1847.47 6030.79 1849.83 6029.93 1852.19 6028.94 1854.26 6028.49 1856 6027.15 1861.35 6027.19 1866.96 6028.6 1872.29 6029.11 1874.46 6029.83 1876.58 6030.76 1878.61 6030.83 1878.77 6030.92 1878.93 6031.01 1879.08 6031.73 1880.32 6032.83 1882.1 6031.68 1883.31Z" fill="#7FAFC6"/><path d="M6031 1879.08 5947.23 1879.08C5944.67 1879.08 5942.59 1876.36 5942.59 1873.01L5942.59 1855.91C5942.59 1852.55 5944.67 1849.83 5947.23 1849.83L6030.78 1849.83C6029.96 1852.06 6028.93 1854.26 6028.48 1856 6027.14 1861.35 6027.18 1866.96 6028.59 1872.29 6029.1 1874.46 6029.82 1876.58 6030.75 1878.61 6030.82 1878.77 6030.91 1878.93 6031 1879.08Z" fill="#FFFFFF"/><path d="M6527.9 1941.97 6556.74 1732.89 6521.88 1726.86 6492.21 1941.97 6527.9 1941.97Z" fill="#7FAFC6"/><path d="M6576.26 1941.97 6591.74 1726.95 6592.58 1715.38 6593.47 1702.95 6594.32 1691.18 6596.61 1659.53 6561.44 1656.37 6559.46 1684.07 6558.62 1695.46 6557.54 1710.6 6556.71 1722.17 6540.87 1941.97 6576.26 1941.97Z" fill="#7FAFC6"/><g opacity="0.6"><ellipse cx="3119.95" cy="3808.84" rx="1058.96" ry="74.01" fill="#558EA0"/></g><path d="M2299.31 3791.76 2263.46 3791.76 2263.46 3617.87 2355.91 3617.87 2299.31 3791.76Z" fill="#FFBE7C"/><path d="M3974.74 3791.76 4010.59 3791.76 4010.59 3617.87 3918.14 3617.87 3974.74 3791.76Z" fill="#FFBE7C"/><rect x="2163.47" y="3035.04" width="1947.12" height="647.8" fill="#FFBE7C"/><rect x="2771" y="3095.23" width="9.43" height="587.61" fill="#F49262"/><rect x="3493.62" y="3095.23" width="9.43" height="587.61" fill="#F49262"/><rect x="2163.47" y="3090.45" width="1947.12" height="9.55" fill="#F49262"/><path d="M3032.31 3096.18 3241.74 3096.18 3241.74 3096.18 3241.74 3150C3241.74 3150.91 3241.01 3151.64 3240.1 3151.64L3034 3151.64C3033.09 3151.64 3032.36 3150.91 3032.36 3150L3032.36 3096.23 3032.31 3096.18Z" fill="#F49262"/><path d="M2364.4 3096.18 2573.83 3096.18 2573.83 3096.18 2573.83 3150C2573.83 3150.91 2573.1 3151.64 2572.19 3151.64L2366 3151.64C2365.09 3151.64 2364.36 3150.91 2364.36 3150L2364.36 3096.23 2364.4 3096.18Z" fill="#F49262"/><path d="M3700.22 3096.18 3909.65 3096.18 3909.65 3096.18 3909.65 3150C3909.65 3150.91 3908.92 3151.64 3908.01 3151.64L3701.86 3151.64C3700.95 3151.64 3700.22 3150.91 3700.22 3150L3700.22 3096.23 3700.22 3096.18Z" fill="#F49262"/><g opacity="0.6"><ellipse cx="2163.47" cy="4167.52" rx="415.61" ry="51.24" fill="#558EA0"/></g><path d="M2205.22 4163.77 2190.69 3549.98 2139.22 3551.75 2188.01 4163.77 2205.22 4163.77Z" fill="#2F4A79"/><path d="M1873.37 4161.54 1933.13 3550.49 1984.33 3556.05 1890.55 4162.81 1873.37 4161.54Z" fill="#2F4A79"/><path d="M2465.21 4161.54 2405.46 3550.49 2354.25 3556.05 2448.04 4162.81 2465.21 4161.54Z" fill="#2F4A79"/><rect x="1907.72" y="3563.71" width="532.4" height="40.08" fill="#2F4A79"/><path d="M1871.51 3500 1882.88 3549.94C1886.26 3564.82 1899.49 3575.38 1914.75 3575.38L2424.68 3575.38C2443.3 3575.38 2458.39 3560.29 2458.39 3541.67L2458.39 3533.67C2458.39 3515.05 2443.3 3499.96 2424.68 3499.96Z" fill="#F26061"/><path d="M1982 2925.76C1858.37 2925.76 1766.75 3040.58 1794.2 3161.13L1871.47 3500.58C1873.03 3507.41 1874.59 3514.24 1876.14 3521.08 1877.55 3527.29 1879.43 3533.57 1880.41 3539.86 1881.2 3544.86 1883.51 3548.8 1888.41 3550.86 1894.74 3553.47 1900.6 3550.86 1906.95 3550.86L2215.3 3550.86 2221 3576 2234 3550.91 2234.25 3550.91 2234.25 3550.44 2260.15 3500.63 2170.39 3078.37C2151.5 2989.4 2072.95 2925.77 1982 2925.76Z" fill="#F26061"/><path d="M2232.88 3501.4 1923.74 3501.4C1918.67 3501.4 1906.66 3502.09 1906.66 3505.27 1906.66 3508.45 1918.97 3509.14 1923.74 3509.14L2232.88 3509.14C2237.94 3509.14 2249.96 3508.45 2249.96 3505.27 2249.96 3502.09 2237.64 3501.4 2232.88 3501.4Z" fill="#DD5259"/></g></g></svg>