<svg viewBox="0 0 843.93 843.93" xmlns="http://www.w3.org/2000/svg" xmlns:xlink="http://www.w3.org/1999/xlink" overflow="hidden"><defs></defs><g id="Слой_2"><g id="Object"><circle cx="421.97" cy="421.97" r="421.97" fill="#FFFFFF" opacity="0.8"/><path d="M416.4 232.54C419.01 248.823 407.925 264.139 391.642 266.749 375.359 269.359 360.042 258.275 357.433 241.991 354.823 225.708 365.907 210.392 382.191 207.782 385.317 207.281 388.503 207.28 391.63 207.78 404.365 209.822 414.353 219.806 416.4 232.54Z"/><path d="M352.3 265.91C352.3 265.91 304.54 398.42 305.74 403.2 306.94 407.98 397.66 456.92 401.24 461.69 404.82 466.46 363 585.85 363 587 363 588.15 389.26 597.74 391.65 596.55 394.04 595.36 440.6 453.3 441.79 448.55 442.98 443.8 369 398.42 369 397.23 369 396.04 409.6 287.4 406 285 402.4 282.6 352.3 265.91 352.3 265.91Z"/><path d="M303.35 408C303.35 408 265.15 467.69 261.57 467.69 257.99 467.69 193.57 431.88 191.13 431.88 188.69 431.88 174.42 454.56 174.42 456.95 174.42 459.34 255.6 507.06 264 508.25 272.4 509.44 332 427.07 330.85 424.68 329.7 422.29 303.35 408 303.35 408Z"/><path d="M525.39 248C525.39 248 492.11 310.19 488.57 310.75 485.03 311.31 413.15 285.83 410.79 286.21 408.43 286.59 403.63 307.69 400.79 313.89 399.79 316.06 488.86 350.59 497.3 350.46 505.74 350.33 549.9 263.46 548.3 261.3 546.7 259.14 525.39 248 525.39 248Z"/><path d="M297.38 382.9C297.38 382.9 297.55 312.66 299.75 309.84 301.95 307.02 360.26 296.05 361.75 294.17 363.24 292.29 354.11 267.05 352.23 265.58 350.35 264.11 272.35 280.93 266.23 286.79 260.11 292.65 274 387.46 276.63 388 279.26 388.54 297.38 382.9 297.38 382.9Z"/><path d="M461.08 622.41 366.87 622.41 366.87 610.38 449.06 610.38 449.06 534.2 537.11 534.2 535.11 452.01 669.57 452.01 669.57 464.04 547.43 464.04 549.44 546.23 461.08 546.23 461.08 622.41Z"/></g></g></svg>