<svg viewBox="0 0 8728.33 5237" xmlns="http://www.w3.org/2000/svg" xmlns:xlink="http://www.w3.org/1999/xlink" overflow="hidden"><defs></defs><g><g id="Слой_2"><g id="Layer_1"><rect x="0" y="0" width="8728.33" height="4852.77" fill="#D6CAB4"/><path d="M4342.34 267.12C6247.49 267.12 7901.15 1455.22 8728.34 2402.12L8728.34 0 0 0 0 2353.25C840.79 1433.09 2470.12 267.12 4342.34 267.12Z" fill="#B2A38B"/><g opacity="0.4"><rect x="0" y="0" width="576.05" height="174.5" fill="#FFF6E4"/><rect x="613.43" y="0" width="635.37" height="174.5" fill="#FFF6E4"/><rect x="1286.17" y="0" width="635.37" height="174.5" fill="#FFF6E4"/><rect x="1958.92" y="0" width="635.37" height="174.5" fill="#FFF6E4"/><rect x="2631.67" y="0" width="635.37" height="174.5" fill="#FFF6E4"/><rect x="3304.41" y="0" width="635.37" height="174.5" fill="#FFF6E4"/><rect x="0" y="204.76" width="355.36" height="177.99" fill="#FFF6E4"/><rect x="392.74" y="204.76" width="635.37" height="177.99" fill="#FFF6E4"/><rect x="1065.48" y="204.76" width="635.37" height="177.99" fill="#FFF6E4"/><rect x="1738.23" y="204.76" width="635.37" height="177.99" fill="#FFF6E4"/><rect x="2410.98" y="204.76" width="635.37" height="177.99" fill="#FFF6E4"/><rect x="3083.72" y="204.76" width="635.37" height="177.99" fill="#FFF6E4"/><path d="M3756.47 204.76 3756.47 382.75 4364.17 382.75 4719.53 382.75 4719.53 204.76 4364.17 204.76 3756.47 204.76Z" fill="#FFF6E4"/><rect x="92.75" y="418.35" width="635.37" height="177.99" fill="#FFF6E4"/><rect x="0" y="418.35" width="56.46" height="177.99" fill="#FFF6E4"/><rect x="765.5" y="418.35" width="635.37" height="177.99" fill="#FFF6E4"/><rect x="1438.25" y="418.35" width="635.37" height="177.99" fill="#FFF6E4"/><rect x="2110.99" y="418.35" width="635.37" height="177.99" fill="#FFF6E4"/><rect x="2783.74" y="418.35" width="635.37" height="177.99" fill="#FFF6E4"/><rect x="3456.49" y="418.35" width="635.37" height="177.99" fill="#FFF6E4"/><path d="M4129.23 418.35 4129.23 596.34 4364.17 596.34 4420.63 596.34 4420.63 418.35 4364.17 418.35 4129.23 418.35Z" fill="#FFF6E4"/><rect x="0" y="621.26" width="203.29" height="177.99" fill="#FFF6E4"/><rect x="240.66" y="621.26" width="635.37" height="177.99" fill="#FFF6E4"/><rect x="913.41" y="621.26" width="635.37" height="177.99" fill="#FFF6E4"/><rect x="1586.16" y="621.26" width="635.37" height="177.99" fill="#FFF6E4"/><rect x="2258.9" y="621.26" width="635.37" height="177.99" fill="#FFF6E4"/><rect x="2931.65" y="621.26" width="635.37" height="177.99" fill="#FFF6E4"/><rect x="3604.4" y="621.26" width="635.37" height="177.99" fill="#FFF6E4"/><path d="M4277.14 621.26 4277.14 799.25 4364.17 799.25 4567.45 799.25 4567.45 621.26 4364.17 621.26 4277.14 621.26Z" fill="#FFF6E4"/><rect x="0" y="834.85" width="576.05" height="177.99" fill="#FFF6E4"/><rect x="613.43" y="834.85" width="635.37" height="177.99" fill="#FFF6E4"/><rect x="1286.17" y="834.85" width="635.37" height="177.99" fill="#FFF6E4"/><rect x="1958.92" y="834.85" width="635.37" height="177.99" fill="#FFF6E4"/><rect x="2631.67" y="834.85" width="635.37" height="177.99" fill="#FFF6E4"/><rect x="3304.41" y="834.85" width="635.37" height="177.99" fill="#FFF6E4"/><path d="M3977.16 834.85 3977.16 1012.84 4364.17 1012.84 4940.22 1012.84 4940.22 834.85 4364.17 834.85 3977.16 834.85Z" fill="#FFF6E4"/><rect x="0" y="1037.76" width="355.36" height="177.99" fill="#FFF6E4"/><rect x="392.74" y="1037.76" width="635.37" height="177.99" fill="#FFF6E4"/><rect x="1065.48" y="1037.76" width="635.37" height="177.99" fill="#FFF6E4"/><rect x="1738.23" y="1037.76" width="635.37" height="177.99" fill="#FFF6E4"/><rect x="2410.98" y="1037.76" width="635.37" height="177.99" fill="#FFF6E4"/><rect x="3083.72" y="1037.76" width="635.37" height="177.99" fill="#FFF6E4"/><path d="M3756.47 1037.76 3756.47 1215.76 4364.17 1215.76 4719.53 1215.76 4719.53 1037.76 4364.17 1037.76 3756.47 1037.76Z" fill="#FFF6E4"/><rect x="92.75" y="1251.35" width="635.37" height="177.99" fill="#FFF6E4"/><rect x="0" y="1251.35" width="56.46" height="177.99" fill="#FFF6E4"/><rect x="765.5" y="1251.35" width="635.37" height="177.99" fill="#FFF6E4"/><rect x="1438.25" y="1251.35" width="635.37" height="177.99" fill="#FFF6E4"/><rect x="2110.99" y="1251.35" width="635.37" height="177.99" fill="#FFF6E4"/><rect x="2783.74" y="1251.35" width="635.37" height="177.99" fill="#FFF6E4"/><rect x="3456.49" y="1251.35" width="635.37" height="177.99" fill="#FFF6E4"/><path d="M4129.23 1251.35 4129.23 1429.35 4364.17 1429.35 4420.63 1429.35 4420.63 1251.35 4364.17 1251.35 4129.23 1251.35Z" fill="#FFF6E4"/><rect x="0" y="1454.26" width="203.29" height="177.99" fill="#FFF6E4"/><rect x="240.66" y="1454.26" width="635.37" height="177.99" fill="#FFF6E4"/><rect x="913.41" y="1454.26" width="635.37" height="177.99" fill="#FFF6E4"/><rect x="1586.16" y="1454.26" width="635.37" height="177.99" fill="#FFF6E4"/><rect x="2258.9" y="1454.26" width="635.37" height="177.99" fill="#FFF6E4"/><rect x="2931.65" y="1454.26" width="635.37" height="177.99" fill="#FFF6E4"/><rect x="3604.4" y="1454.26" width="635.37" height="177.99" fill="#FFF6E4"/><path d="M4277.14 1454.26 4277.14 1632.26 4364.17 1632.26 4567.45 1632.26 4567.45 1454.26 4364.17 1454.26 4277.14 1454.26Z" fill="#FFF6E4"/><rect x="0" y="1667.85" width="576.05" height="177.99" fill="#FFF6E4"/><rect x="613.43" y="1667.85" width="635.37" height="177.99" fill="#FFF6E4"/><rect x="1286.17" y="1667.85" width="635.37" height="177.99" fill="#FFF6E4"/><rect x="1958.92" y="1667.85" width="635.37" height="177.99" fill="#FFF6E4"/><rect x="2631.67" y="1667.85" width="635.37" height="177.99" fill="#FFF6E4"/><rect x="3304.41" y="1667.85" width="635.37" height="177.99" fill="#FFF6E4"/><path d="M3977.16 1667.85 3977.16 1845.85 4364.17 1845.85 4940.22 1845.85 4940.22 1667.85 4364.17 1667.85 3977.16 1667.85Z" fill="#FFF6E4"/><rect x="0" y="1870.77" width="355.36" height="177.99" fill="#FFF6E4"/><rect x="392.74" y="1870.77" width="635.37" height="177.99" fill="#FFF6E4"/><rect x="1065.48" y="1870.77" width="635.37" height="177.99" fill="#FFF6E4"/><rect x="1738.23" y="1870.77" width="635.37" height="177.99" fill="#FFF6E4"/><rect x="2410.98" y="1870.77" width="635.37" height="177.99" fill="#FFF6E4"/><rect x="3083.72" y="1870.77" width="635.37" height="177.99" fill="#FFF6E4"/><path d="M3756.47 1870.77 3756.47 2048.76 4364.17 2048.76 4719.53 2048.76 4719.53 1870.77 4364.17 1870.77 3756.47 1870.77Z" fill="#FFF6E4"/><rect x="92.75" y="2084.36" width="635.37" height="177.99" fill="#FFF6E4"/><rect x="0" y="2084.36" width="56.46" height="177.99" fill="#FFF6E4"/><rect x="765.5" y="2084.36" width="635.37" height="177.99" fill="#FFF6E4"/><rect x="1438.25" y="2084.36" width="635.37" height="177.99" fill="#FFF6E4"/><rect x="2110.99" y="2084.36" width="635.37" height="177.99" fill="#FFF6E4"/><rect x="2783.74" y="2084.36" width="635.37" height="177.99" fill="#FFF6E4"/><rect x="3456.49" y="2084.36" width="635.37" height="177.99" fill="#FFF6E4"/><path d="M4129.23 2084.36 4129.23 2262.35 4364.17 2262.35 4420.63 2262.35 4420.63 2084.36 4364.17 2084.36 4129.23 2084.36Z" fill="#FFF6E4"/><rect x="0" y="2287.27" width="203.29" height="164.55" fill="#FFF6E4"/><rect x="240.66" y="2287.27" width="635.37" height="164.55" fill="#FFF6E4"/><rect x="913.41" y="2287.27" width="635.37" height="164.55" fill="#FFF6E4"/><rect x="1586.16" y="2287.27" width="635.37" height="164.55" fill="#FFF6E4"/><rect x="2258.9" y="2287.27" width="635.37" height="164.55" fill="#FFF6E4"/><rect x="2931.65" y="2287.27" width="635.37" height="164.55" fill="#FFF6E4"/><rect x="3604.4" y="2287.27" width="635.37" height="164.55" fill="#FFF6E4"/><path d="M4277.14 2287.27 4277.14 2451.82 4364.17 2451.82 4567.45 2451.82 4567.45 2287.27 4364.17 2287.27 4277.14 2287.27Z" fill="#FFF6E4"/><path d="M4940.22 174.5 4940.22 0 4364.17 0 3977.16 0 3977.16 174.5 4364.17 174.5 4940.22 174.5Z" fill="#FFF6E4"/><rect x="4977.59" y="0" width="635.37" height="174.5" fill="#FFF6E4"/><rect x="5650.34" y="0" width="635.37" height="174.5" fill="#FFF6E4"/><rect x="6323.09" y="0" width="635.37" height="174.5" fill="#FFF6E4"/><rect x="6995.83" y="0" width="635.37" height="174.5" fill="#FFF6E4"/><rect x="7668.58" y="0" width="635.37" height="174.5" fill="#FFF6E4"/><rect x="8341.33" y="0" width="387.01" height="174.5" fill="#FFF6E4"/><rect x="4756.9" y="204.76" width="635.37" height="177.99" fill="#FFF6E4"/><rect x="5429.65" y="204.76" width="635.37" height="177.99" fill="#FFF6E4"/><rect x="6102.4" y="204.76" width="635.37" height="177.99" fill="#FFF6E4"/><rect x="6775.14" y="204.76" width="635.37" height="177.99" fill="#FFF6E4"/><rect x="7447.89" y="204.76" width="635.37" height="177.99" fill="#FFF6E4"/><rect x="8120.63" y="204.76" width="607.7" height="177.99" fill="#FFF6E4"/><rect x="4456.92" y="418.35" width="635.37" height="177.99" fill="#FFF6E4"/><rect x="5129.66" y="418.35" width="635.37" height="177.99" fill="#FFF6E4"/><rect x="5802.41" y="418.35" width="635.37" height="177.99" fill="#FFF6E4"/><rect x="6475.16" y="418.35" width="635.37" height="177.99" fill="#FFF6E4"/><rect x="7147.9" y="418.35" width="635.37" height="177.99" fill="#FFF6E4"/><rect x="7820.65" y="418.35" width="635.37" height="177.99" fill="#FFF6E4"/><rect x="8493.4" y="418.35" width="234.93" height="177.99" fill="#FFF6E4"/><rect x="4604.83" y="621.26" width="635.37" height="177.99" fill="#FFF6E4"/><rect x="5277.57" y="621.26" width="635.37" height="177.99" fill="#FFF6E4"/><rect x="5950.32" y="621.26" width="635.37" height="177.99" fill="#FFF6E4"/><rect x="6623.07" y="621.26" width="635.37" height="177.99" fill="#FFF6E4"/><rect x="7295.82" y="621.26" width="635.37" height="177.99" fill="#FFF6E4"/><rect x="7968.56" y="621.26" width="635.37" height="177.99" fill="#FFF6E4"/><rect x="8641.31" y="621.26" width="87.03" height="177.99" fill="#FFF6E4"/><rect x="4977.59" y="834.85" width="635.37" height="177.99" fill="#FFF6E4"/><rect x="5650.34" y="834.85" width="635.37" height="177.99" fill="#FFF6E4"/><rect x="6323.09" y="834.85" width="635.37" height="177.99" fill="#FFF6E4"/><rect x="6995.83" y="834.85" width="635.37" height="177.99" fill="#FFF6E4"/><rect x="7668.58" y="834.85" width="635.37" height="177.99" fill="#FFF6E4"/><rect x="8341.33" y="834.85" width="387.01" height="177.99" fill="#FFF6E4"/><rect x="4756.9" y="1037.76" width="635.37" height="177.99" fill="#FFF6E4"/><rect x="5429.65" y="1037.76" width="635.37" height="177.99" fill="#FFF6E4"/><rect x="6102.4" y="1037.76" width="635.37" height="177.99" fill="#FFF6E4"/><rect x="6775.14" y="1037.76" width="635.37" height="177.99" fill="#FFF6E4"/><rect x="7447.89" y="1037.76" width="635.37" height="177.99" fill="#FFF6E4"/><rect x="8120.63" y="1037.76" width="607.7" height="177.99" fill="#FFF6E4"/><rect x="4456.92" y="1251.35" width="635.37" height="177.99" fill="#FFF6E4"/><rect x="5129.66" y="1251.35" width="635.37" height="177.99" fill="#FFF6E4"/><rect x="5802.41" y="1251.35" width="635.37" height="177.99" fill="#FFF6E4"/><rect x="6475.16" y="1251.35" width="635.37" height="177.99" fill="#FFF6E4"/><rect x="7147.9" y="1251.35" width="635.37" height="177.99" fill="#FFF6E4"/><rect x="7820.65" y="1251.35" width="635.37" height="177.99" fill="#FFF6E4"/><rect x="8493.4" y="1251.35" width="234.93" height="177.99" fill="#FFF6E4"/><rect x="4604.83" y="1454.26" width="635.37" height="177.99" fill="#FFF6E4"/><rect x="5277.57" y="1454.26" width="635.37" height="177.99" fill="#FFF6E4"/><rect x="5950.32" y="1454.26" width="635.37" height="177.99" fill="#FFF6E4"/><rect x="6623.07" y="1454.26" width="635.37" height="177.99" fill="#FFF6E4"/><rect x="7295.82" y="1454.26" width="635.37" height="177.99" fill="#FFF6E4"/><rect x="7968.56" y="1454.26" width="635.37" height="177.99" fill="#FFF6E4"/><rect x="8641.31" y="1454.26" width="87.03" height="177.99" fill="#FFF6E4"/><rect x="4977.59" y="1667.85" width="635.37" height="177.99" fill="#FFF6E4"/><rect x="5650.34" y="1667.85" width="635.37" height="177.99" fill="#FFF6E4"/><rect x="6323.09" y="1667.85" width="635.37" height="177.99" fill="#FFF6E4"/><rect x="6995.83" y="1667.85" width="635.37" height="177.99" fill="#FFF6E4"/><rect x="7668.58" y="1667.85" width="635.37" height="177.99" fill="#FFF6E4"/><rect x="8341.33" y="1667.85" width="387.01" height="177.99" fill="#FFF6E4"/><rect x="4756.9" y="1870.77" width="635.37" height="177.99" fill="#FFF6E4"/><rect x="5429.65" y="1870.77" width="635.37" height="177.99" fill="#FFF6E4"/><rect x="6102.4" y="1870.77" width="635.37" height="177.99" fill="#FFF6E4"/><rect x="6775.14" y="1870.77" width="635.37" height="177.99" fill="#FFF6E4"/><rect x="7447.89" y="1870.77" width="635.37" height="177.99" fill="#FFF6E4"/><rect x="8120.63" y="1870.77" width="607.7" height="177.99" fill="#FFF6E4"/><rect x="4456.92" y="2084.36" width="635.37" height="177.99" fill="#FFF6E4"/><rect x="5129.66" y="2084.36" width="635.37" height="177.99" fill="#FFF6E4"/><rect x="5802.41" y="2084.36" width="635.37" height="177.99" fill="#FFF6E4"/><rect x="6475.16" y="2084.36" width="635.37" height="177.99" fill="#FFF6E4"/><rect x="7147.9" y="2084.36" width="635.37" height="177.99" fill="#FFF6E4"/><rect x="7820.65" y="2084.36" width="635.37" height="177.99" fill="#FFF6E4"/><rect x="8493.4" y="2084.36" width="234.93" height="177.99" fill="#FFF6E4"/><rect x="4604.83" y="2287.27" width="635.37" height="164.55" fill="#FFF6E4"/><rect x="5277.57" y="2287.27" width="635.37" height="164.55" fill="#FFF6E4"/><rect x="5950.32" y="2287.27" width="635.37" height="164.55" fill="#FFF6E4"/><rect x="6623.07" y="2287.27" width="635.37" height="164.55" fill="#FFF6E4"/><rect x="7295.82" y="2287.27" width="635.37" height="164.55" fill="#FFF6E4"/><rect x="7968.56" y="2287.27" width="635.37" height="164.55" fill="#FFF6E4"/><rect x="8641.31" y="2287.27" width="87.03" height="164.55" fill="#FFF6E4"/><rect x="0" y="2470.95" width="576.05" height="175.86" fill="#FFF6E4"/><rect x="613.43" y="2470.95" width="635.37" height="175.86" fill="#FFF6E4"/><rect x="1286.17" y="2470.95" width="635.37" height="175.86" fill="#FFF6E4"/><rect x="1958.92" y="2470.95" width="635.37" height="175.86" fill="#FFF6E4"/><rect x="2631.67" y="2470.95" width="635.37" height="175.86" fill="#FFF6E4"/><rect x="3304.41" y="2470.95" width="635.37" height="175.86" fill="#FFF6E4"/><rect x="0" y="2677.31" width="355.36" height="179.38" fill="#FFF6E4"/><rect x="392.74" y="2677.31" width="635.37" height="179.38" fill="#FFF6E4"/><rect x="1065.48" y="2677.31" width="635.37" height="179.38" fill="#FFF6E4"/><rect x="1738.23" y="2677.31" width="635.37" height="179.38" fill="#FFF6E4"/><rect x="2410.98" y="2677.31" width="635.37" height="179.38" fill="#FFF6E4"/><rect x="3083.72" y="2677.31" width="635.37" height="179.38" fill="#FFF6E4"/><rect x="92.75" y="2892.57" width="635.37" height="179.38" fill="#FFF6E4"/><rect x="0" y="2892.57" width="56.46" height="179.38" fill="#FFF6E4"/><rect x="765.5" y="2892.57" width="635.37" height="179.38" fill="#FFF6E4"/><rect x="1438.25" y="2892.57" width="635.37" height="179.38" fill="#FFF6E4"/><rect x="2110.99" y="2892.57" width="635.37" height="179.38" fill="#FFF6E4"/><rect x="2783.74" y="2892.57" width="635.37" height="179.38" fill="#FFF6E4"/><rect x="3456.49" y="2892.57" width="635.37" height="179.38" fill="#FFF6E4"/><rect x="0" y="3097.06" width="203.29" height="179.38" fill="#FFF6E4"/><rect x="240.66" y="3097.06" width="635.37" height="179.38" fill="#FFF6E4"/><rect x="913.41" y="3097.06" width="635.37" height="179.38" fill="#FFF6E4"/><rect x="1586.16" y="3097.06" width="635.37" height="179.38" fill="#FFF6E4"/><rect x="2258.9" y="3097.06" width="635.37" height="179.38" fill="#FFF6E4"/><rect x="2931.65" y="3097.06" width="635.37" height="179.38" fill="#FFF6E4"/><rect x="3604.4" y="3097.06" width="635.37" height="179.38" fill="#FFF6E4"/><rect x="0" y="3312.32" width="576.05" height="179.38" fill="#FFF6E4"/><rect x="613.43" y="3312.32" width="635.37" height="179.38" fill="#FFF6E4"/><rect x="1286.17" y="3312.32" width="635.37" height="179.38" fill="#FFF6E4"/><rect x="1958.92" y="3312.32" width="635.37" height="179.38" fill="#FFF6E4"/><rect x="2631.67" y="3312.32" width="635.37" height="179.38" fill="#FFF6E4"/><rect x="3304.41" y="3312.32" width="635.37" height="179.38" fill="#FFF6E4"/><rect x="0" y="3516.81" width="355.36" height="179.38" fill="#FFF6E4"/><rect x="392.74" y="3516.81" width="635.37" height="179.38" fill="#FFF6E4"/><rect x="1065.48" y="3516.81" width="635.37" height="179.38" fill="#FFF6E4"/><rect x="1738.23" y="3516.81" width="635.37" height="179.38" fill="#FFF6E4"/><rect x="2410.98" y="3516.81" width="635.37" height="179.38" fill="#FFF6E4"/><rect x="3083.72" y="3516.81" width="635.37" height="179.38" fill="#FFF6E4"/><rect x="92.75" y="3732.07" width="635.37" height="179.38" fill="#FFF6E4"/><rect x="0" y="3732.07" width="56.46" height="179.38" fill="#FFF6E4"/><rect x="765.5" y="3732.07" width="635.37" height="179.38" fill="#FFF6E4"/><rect x="1438.25" y="3732.07" width="635.37" height="179.38" fill="#FFF6E4"/><rect x="2110.99" y="3732.07" width="635.37" height="179.38" fill="#FFF6E4"/><rect x="2783.74" y="3732.07" width="635.37" height="179.38" fill="#FFF6E4"/><rect x="3456.49" y="3732.07" width="635.37" height="179.38" fill="#FFF6E4"/><rect x="0" y="3936.57" width="203.29" height="179.38" fill="#FFF6E4"/><rect x="240.66" y="3936.57" width="635.37" height="179.38" fill="#FFF6E4"/><rect x="913.41" y="3936.57" width="635.37" height="179.38" fill="#FFF6E4"/><rect x="1586.16" y="3936.57" width="635.37" height="179.38" fill="#FFF6E4"/><rect x="2258.9" y="3936.57" width="635.37" height="179.38" fill="#FFF6E4"/><rect x="2931.65" y="3936.57" width="635.37" height="179.38" fill="#FFF6E4"/><rect x="3604.4" y="3936.57" width="635.37" height="179.38" fill="#FFF6E4"/><rect x="0" y="4151.82" width="576.05" height="179.38" fill="#FFF6E4"/><rect x="613.43" y="4151.82" width="635.37" height="179.38" fill="#FFF6E4"/><rect x="1286.17" y="4151.82" width="635.37" height="179.38" fill="#FFF6E4"/><rect x="1958.92" y="4151.82" width="635.37" height="179.38" fill="#FFF6E4"/><rect x="2631.67" y="4151.82" width="635.37" height="179.38" fill="#FFF6E4"/><rect x="3304.41" y="4151.82" width="635.37" height="179.38" fill="#FFF6E4"/><rect x="0" y="4356.32" width="355.36" height="179.38" fill="#FFF6E4"/><rect x="392.74" y="4356.32" width="635.37" height="179.38" fill="#FFF6E4"/><rect x="1065.48" y="4356.32" width="635.37" height="179.38" fill="#FFF6E4"/><rect x="1738.23" y="4356.32" width="635.37" height="179.38" fill="#FFF6E4"/><rect x="2410.98" y="4356.32" width="635.37" height="179.38" fill="#FFF6E4"/><rect x="3083.72" y="4356.32" width="635.37" height="179.38" fill="#FFF6E4"/><rect x="92.75" y="4571.58" width="635.37" height="179.38" fill="#FFF6E4"/><rect x="0" y="4571.58" width="56.46" height="179.38" fill="#FFF6E4"/><rect x="765.5" y="4571.58" width="635.37" height="179.38" fill="#FFF6E4"/><rect x="1438.25" y="4571.58" width="635.37" height="179.38" fill="#FFF6E4"/><rect x="2110.99" y="4571.58" width="635.37" height="179.38" fill="#FFF6E4"/><rect x="2783.74" y="4571.58" width="635.37" height="179.38" fill="#FFF6E4"/><rect x="3456.49" y="4571.58" width="635.37" height="179.38" fill="#FFF6E4"/><path d="M4129.23 4571.58 4129.23 4750.96 4364.17 4750.96 4420.63 4750.96 4420.63 4571.58 4364.17 4571.58 4129.23 4571.58Z" fill="#FFF6E4"/><rect x="0" y="4776.07" width="203.29" height="165.83" fill="#FFF6E4"/><rect x="240.66" y="4776.07" width="635.37" height="165.83" fill="#FFF6E4"/><rect x="913.41" y="4776.07" width="635.37" height="165.83" fill="#FFF6E4"/><rect x="1586.16" y="4776.07" width="635.37" height="165.83" fill="#FFF6E4"/><rect x="2258.9" y="4776.07" width="635.37" height="165.83" fill="#FFF6E4"/><rect x="2931.65" y="4776.07" width="635.37" height="165.83" fill="#FFF6E4"/><rect x="3604.4" y="4776.07" width="635.37" height="165.83" fill="#FFF6E4"/><path d="M4277.14 4776.07 4277.14 4941.91 4364.17 4941.91 4567.45 4941.91 4567.45 4776.07 4364.17 4776.07 4277.14 4776.07Z" fill="#FFF6E4"/><path d="M4940.21 2646.81 4940.21 2470.95 4364.17 2470.95 3977.16 2470.95 3977.16 2646.81 4364.17 2646.81 4940.21 2646.81Z" fill="#FFF6E4"/><rect x="4977.59" y="2470.95" width="635.37" height="175.86" fill="#FFF6E4"/><rect x="5650.34" y="2470.95" width="635.37" height="175.86" fill="#FFF6E4"/><rect x="6323.08" y="2470.95" width="635.37" height="175.86" fill="#FFF6E4"/><rect x="6995.83" y="2470.95" width="635.37" height="175.86" fill="#FFF6E4"/><rect x="7668.58" y="2470.95" width="635.37" height="175.86" fill="#FFF6E4"/><rect x="8341.32" y="2470.95" width="387.01" height="175.86" fill="#FFF6E4"/><path d="M4719.52 2856.69 4719.52 2677.31 4364.17 2677.31 3756.47 2677.31 3756.47 2856.69 4364.17 2856.69 4719.52 2856.69Z" fill="#FFF6E4"/><rect x="4756.9" y="2677.31" width="635.37" height="179.38" fill="#FFF6E4"/><rect x="5429.65" y="2677.31" width="635.37" height="179.38" fill="#FFF6E4"/><rect x="6102.4" y="2677.31" width="635.37" height="179.38" fill="#FFF6E4"/><rect x="6775.14" y="2677.31" width="635.37" height="179.38" fill="#FFF6E4"/><rect x="7447.89" y="2677.31" width="635.37" height="179.38" fill="#FFF6E4"/><rect x="8120.63" y="2677.31" width="607.7" height="179.38" fill="#FFF6E4"/><rect x="4456.92" y="2892.57" width="635.37" height="179.38" fill="#FFF6E4"/><path d="M4420.63 3071.95 4420.63 2892.57 4364.17 2892.57 4129.23 2892.57 4129.23 3071.95 4364.17 3071.95 4420.63 3071.95Z" fill="#FFF6E4"/><rect x="5129.66" y="2892.57" width="635.37" height="179.38" fill="#FFF6E4"/><rect x="5802.41" y="2892.57" width="635.37" height="179.38" fill="#FFF6E4"/><rect x="6475.16" y="2892.57" width="635.37" height="179.38" fill="#FFF6E4"/><rect x="7147.9" y="2892.57" width="635.37" height="179.38" fill="#FFF6E4"/><rect x="7820.65" y="2892.57" width="635.37" height="179.38" fill="#FFF6E4"/><rect x="8493.4" y="2892.57" width="234.93" height="179.38" fill="#FFF6E4"/><path d="M4567.45 3276.44 4567.45 3097.06 4364.17 3097.06 4277.14 3097.06 4277.14 3276.44 4364.17 3276.44 4567.45 3276.44Z" fill="#FFF6E4"/><rect x="4604.83" y="3097.06" width="635.37" height="179.38" fill="#FFF6E4"/><rect x="5277.57" y="3097.06" width="635.37" height="179.38" fill="#FFF6E4"/><rect x="5950.32" y="3097.06" width="635.37" height="179.38" fill="#FFF6E4"/><rect x="6623.07" y="3097.06" width="635.37" height="179.38" fill="#FFF6E4"/><rect x="7295.82" y="3097.06" width="635.37" height="179.38" fill="#FFF6E4"/><rect x="7968.56" y="3097.06" width="635.37" height="179.38" fill="#FFF6E4"/><rect x="8641.31" y="3097.06" width="87.03" height="179.38" fill="#FFF6E4"/><path d="M4940.21 3491.7 4940.21 3312.32 4364.17 3312.32 3977.16 3312.32 3977.16 3491.7 4364.17 3491.7 4940.21 3491.7Z" fill="#FFF6E4"/><rect x="4977.59" y="3312.32" width="635.37" height="179.38" fill="#FFF6E4"/><rect x="5650.34" y="3312.32" width="635.37" height="179.38" fill="#FFF6E4"/><rect x="6323.08" y="3312.32" width="635.37" height="179.38" fill="#FFF6E4"/><rect x="6995.83" y="3312.32" width="635.37" height="179.38" fill="#FFF6E4"/><rect x="7668.58" y="3312.32" width="635.37" height="179.38" fill="#FFF6E4"/><rect x="8341.32" y="3312.32" width="387.01" height="179.38" fill="#FFF6E4"/><path d="M4719.52 3696.2 4719.52 3516.81 4364.17 3516.81 3756.47 3516.81 3756.47 3696.2 4364.17 3696.2 4719.52 3696.2Z" fill="#FFF6E4"/><rect x="4756.9" y="3516.81" width="635.37" height="179.38" fill="#FFF6E4"/><rect x="5429.65" y="3516.81" width="635.37" height="179.38" fill="#FFF6E4"/><rect x="6102.4" y="3516.81" width="635.37" height="179.38" fill="#FFF6E4"/><rect x="6775.14" y="3516.81" width="635.37" height="179.38" fill="#FFF6E4"/><rect x="7447.89" y="3516.81" width="635.37" height="179.38" fill="#FFF6E4"/><rect x="8120.63" y="3516.81" width="607.7" height="179.38" fill="#FFF6E4"/><rect x="4456.92" y="3732.07" width="635.37" height="179.38" fill="#FFF6E4"/><path d="M4420.63 3911.45 4420.63 3732.07 4364.17 3732.07 4129.23 3732.07 4129.23 3911.45 4364.17 3911.45 4420.63 3911.45Z" fill="#FFF6E4"/><rect x="5129.66" y="3732.07" width="635.37" height="179.38" fill="#FFF6E4"/><rect x="5802.41" y="3732.07" width="635.37" height="179.38" fill="#FFF6E4"/><rect x="6475.16" y="3732.07" width="635.37" height="179.38" fill="#FFF6E4"/><rect x="7147.9" y="3732.07" width="635.37" height="179.38" fill="#FFF6E4"/><rect x="7820.65" y="3732.07" width="635.37" height="179.38" fill="#FFF6E4"/><rect x="8493.4" y="3732.07" width="234.93" height="179.38" fill="#FFF6E4"/><path d="M4567.45 4115.95 4567.45 3936.57 4364.17 3936.57 4277.14 3936.57 4277.14 4115.95 4364.17 4115.95 4567.45 4115.95Z" fill="#FFF6E4"/><rect x="4604.83" y="3936.57" width="635.37" height="179.38" fill="#FFF6E4"/><rect x="5277.57" y="3936.57" width="635.37" height="179.38" fill="#FFF6E4"/><rect x="5950.32" y="3936.57" width="635.37" height="179.38" fill="#FFF6E4"/><rect x="6623.07" y="3936.57" width="635.37" height="179.38" fill="#FFF6E4"/><rect x="7295.82" y="3936.57" width="635.37" height="179.38" fill="#FFF6E4"/><rect x="7968.56" y="3936.57" width="635.37" height="179.38" fill="#FFF6E4"/><rect x="8641.31" y="3936.57" width="87.03" height="179.38" fill="#FFF6E4"/><path d="M4940.21 4331.21 4940.21 4151.82 4364.17 4151.82 3977.16 4151.82 3977.16 4331.21 4364.17 4331.21 4940.21 4331.21Z" fill="#FFF6E4"/><rect x="4977.59" y="4151.82" width="635.37" height="179.38" fill="#FFF6E4"/><rect x="5650.34" y="4151.82" width="635.37" height="179.38" fill="#FFF6E4"/><rect x="6323.08" y="4151.82" width="635.37" height="179.38" fill="#FFF6E4"/><rect x="6995.83" y="4151.82" width="635.37" height="179.38" fill="#FFF6E4"/><rect x="7668.58" y="4151.82" width="635.37" height="179.38" fill="#FFF6E4"/><rect x="8341.32" y="4151.82" width="387.01" height="179.38" fill="#FFF6E4"/><path d="M4719.52 4356.32 4364.17 4356.32 3756.47 4356.32 3756.47 4535.7 4364.17 4535.7 4719.52 4535.7 4719.52 4356.32Z" fill="#FFF6E4"/><rect x="4756.9" y="4356.32" width="635.37" height="179.38" fill="#FFF6E4"/><rect x="5429.65" y="4356.32" width="635.37" height="179.38" fill="#FFF6E4"/><rect x="6102.4" y="4356.32" width="635.37" height="179.38" fill="#FFF6E4"/><rect x="6775.14" y="4356.32" width="635.37" height="179.38" fill="#FFF6E4"/><rect x="7447.89" y="4356.32" width="635.37" height="179.38" fill="#FFF6E4"/><rect x="8120.63" y="4356.32" width="607.7" height="179.38" fill="#FFF6E4"/><rect x="4456.92" y="4571.58" width="635.37" height="179.38" fill="#FFF6E4"/><rect x="5129.66" y="4571.58" width="635.37" height="179.38" fill="#FFF6E4"/><rect x="5802.41" y="4571.58" width="635.37" height="179.38" fill="#FFF6E4"/><rect x="6475.16" y="4571.58" width="635.37" height="179.38" fill="#FFF6E4"/><rect x="7147.9" y="4571.58" width="635.37" height="179.38" fill="#FFF6E4"/><rect x="7820.65" y="4571.58" width="635.37" height="179.38" fill="#FFF6E4"/><rect x="8493.4" y="4571.58" width="234.93" height="179.38" fill="#FFF6E4"/><rect x="4604.83" y="4776.07" width="635.37" height="165.83" fill="#FFF6E4"/><rect x="5277.57" y="4776.07" width="635.37" height="165.83" fill="#FFF6E4"/><rect x="5950.32" y="4776.07" width="635.37" height="165.83" fill="#FFF6E4"/><rect x="6623.07" y="4776.07" width="635.37" height="165.83" fill="#FFF6E4"/><rect x="7295.82" y="4776.07" width="635.37" height="165.83" fill="#FFF6E4"/><rect x="7968.56" y="4776.07" width="635.37" height="165.83" fill="#FFF6E4"/><rect x="8641.31" y="4776.07" width="87.03" height="165.83" fill="#FFF6E4"/></g><rect x="0" y="4692.31" width="8728.33" height="544.69" fill="#8FC2D8"/><path d="M3211.1 5237 768.65 5237 1729.74 4692.31 2422.51 4692.31 3211.1 5237Z" fill="#CBEBF7"/><path d="M6796.36 5237 4510.72 5237 5405.41 4692.31 6580.6 4692.31 6796.36 5237Z" fill="#9BD6EA"/><path d="M3377.58 306.6 5465.58 306.6C5537.58 306.6 5595.99 266.29 5595.99 216.6L3247.17 216.6C3247.17 266.3 3305.56 306.6 3377.58 306.6Z" fill="#FFFEFD"/><path d="M5542.48 155.74 3300.7 155.74C3215.05 155.74 3145.62 203.67 3145.62 262.8L5697.56 262.8C5697.56 203.67 5628.13 155.74 5542.48 155.74Z" fill="#423840"/><rect x="3543.25" y="0" width="49.9" height="197.1" fill="#423840"/><rect x="5239.81" y="0" width="49.9" height="197.1" fill="#423840"/><path d="M8675.4 4715.25C8675.4 4695.2 8471.86 4678.94 8220.79 4678.94 7969.72 4678.94 7766.17 4695.2 7766.17 4715.25 7766.17 4735.3 7969.71 4751.55 8220.79 4751.55 8471.87 4751.55 8675.4 4735.3 8675.4 4715.25Z" fill="#548B9E"/><path d="M8102.87 3766.76 8147.87 3772.76C8198.08 3827.1 8263.07 4028.39 8263.07 4028.39L8327.85 3685.2 8352.12 3718.41C8352.12 3718.41 8287.83 4029.41 8215.36 4319.24L8195.61 4328.3C8332.41 3994.21 8102.87 3766.76 8102.87 3766.76Z" fill="#8E8332"/><path d="M8252.8 3338.52C8520.25 3354.28 8498.99 3254.22 8498.99 3254.22 8498.99 3254.22 8620.2 3239.81 8616.59 3174.98 8612.98 3110.15 8518.14 3149.34 8518.14 3149.34 8518.14 3149.34 8612.14 3085.91 8559.43 3072.5 8453.07 3045.45 8252.8 3338.52 8252.8 3338.52Z" fill="#A0963C"/><path d="M8197.57 3836C8233.49 3613.87 8127.74 3634.7 8127.74 3634.7 8127.74 3634.7 8066.38 3483.09 8027.36 3524.11 7988.34 3565.13 8054.22 3653.38 8054.22 3653.38 8054.22 3653.38 7977.6 3547.13 7977.88 3655.5 7978.16 3763.87 8206.88 3929.98 8206.88 3929.98Z" fill="#A0963C"/><path d="M8219.57 3309.84C8585.33 2931.43 8385.23 2794.56 8385.23 2794.56 8385.23 2794.56 8470.05 2665.73 8417.09 2613.4 8364.13 2561.07 8340.78 2637.55 8340.78 2637.55 8340.78 2637.55 8461.35 1554.65 8237.09 1450 8012.83 1345.35 8179.61 2017.62 8179.61 2017.62 8179.61 2017.62 8134.97 1969.31 8113.89 1993.46 8092.81 2017.61 8129.89 2106.18 8129.89 2106.18 8129.89 2106.18 8024.53 1933.08 7970.47 2017.62 7916.41 2102.16 8149.08 2432.26 8149.08 2432.26 8149.08 2432.26 8107.47 2412.13 8067.03 2476.54 8026.59 2540.95 8128.93 2685.88 8128.93 2685.88 8128.93 2685.88 8073.39 2609.39 8052.56 2746.27 8031.73 2883.15 8219.57 3309.84 8219.57 3309.84Z" fill="#A0963C"/><path d="M8348 3587.61C8392.81 3527.23 8399.29 3587.61 8399.29 3587.61 8399.29 3587.61 8399.9 3482.95 8450.29 3474.89 8500.68 3466.83 8498 3515.15 8498 3515.15 8498 3515.15 8531.09 3382.3 8628.8 3410.48 8726.51 3438.66 8601.44 3523.2 8601.44 3523.2 8679.44 3551.38 8497.76 3660.08 8497.76 3660.08 8497.76 3660.08 8613.84 3712.41 8335.28 3837.21L8305.88 3857.33C8305.88 3857.33 8303.17 3648 8348 3587.61Z" fill="#A0963C"/><path d="M8215.86 3164.92 8240.06 3243.42C8169.18 3428.6 8355.53 3529.24 8269.42 4050.57L8263.1 4028.43C8317.71 3470.87 8137.07 3497 8215.86 3164.92Z" fill="#8E8332"/><path d="M8335.14 3265.56 8351.97 3293.74C8220.16 3315.38 8238.13 3483 8238.13 3483L8217.13 3434.69C8217.13 3434.69 8239.75 3295.75 8335.14 3265.56Z" fill="#8E8332"/><path d="M8245.13 2720.58C8231.07 2589.45 8180.4 2477.25 8120.68 2430.89 8137.51 2426.76 8149.12 2432.24 8149.12 2432.24 8149.12 2432.24 7916.46 2102.14 7970.51 2017.6 7972.64 2014.3 7975.05 2011.2 7977.72 2008.32 8032.31 2195.12 8117.72 2323.55 8200.58 2323.55 8317.15 2323.55 8384.4 2069.42 8350.77 1755.93 8343.54 1687.69 8331.65 1620.02 8315.17 1553.41 8428.4 1850.24 8340.78 2637.55 8340.78 2637.55 8340.78 2637.55 8357.05 2584.39 8393.17 2597.11 8342.08 2617.56 8311.17 2701.52 8321.93 2802.11 8332.04 2896.39 8375.66 2976.11 8426.77 3002.6 8403.32 3079.6 8344.44 3180.66 8219.57 3309.85 8219.57 3309.85 8159.74 3173.85 8111.37 3030.85 8117.21 3032.3 8123.21 3033.05 8129.23 3033.09 8211.75 3033.08 8263.64 2893.17 8245.13 2720.58Z" fill="#8E8332"/><path d="M8542.75 3071C8494.87 3094.67 8447.55 3132.38 8416.66 3175 8364.66 3246.7 8378.89 3304.83 8448.34 3304.83 8457.81 3304.75 8467.25 3303.8 8476.55 3301.98 8448.61 3325.15 8387.14 3346.46 8252.8 3338.54 8252.8 3338.52 8433.47 3074.24 8542.75 3071Z" fill="#8E8332"/><path d="M8154.82 3786.74C8186.7 3768.74 8193.4 3718.02 8178.09 3654.27 8199.09 3677.81 8214.99 3728.27 8197.57 3836.01L8206.9 3930.01C8206.9 3930.01 8055.42 3820.01 7998.9 3720.62 8057.62 3779.31 8118.08 3807.44 8154.82 3786.74Z" fill="#8E8332"/><path d="M8403.92 3543.51C8409.6 3513.85 8422.21 3479.38 8450.31 3474.89 8455.98 3473.91 8461.77 3473.76 8467.49 3474.44 8444.36 3495.6 8423.1 3518.71 8403.92 3543.51Z" fill="#8E8332"/><path d="M8348 3587.61C8369.21 3559.03 8381.82 3557.52 8389.24 3563.84 8345.54 3628.09 8331.03 3688.09 8357.95 3719.11 8385.2 3750.5 8447.95 3744.17 8518.87 3708.98 8508.08 3737.68 8463.58 3779.74 8335.32 3837.21L8305.92 3857.33C8305.92 3857.33 8303.17 3648 8348 3587.61Z" fill="#8E8332"/><path d="M8118.85 4706.75 8452.68 4706.75C8452.68 4706.75 8555.74 4295.49 8555.45 4179.39 8555.36 4143.16 8039.63 4107.55 8005.77 4167.31 7969.29 4231.72 8118.85 4706.75 8118.85 4706.75Z" fill="#875142"/><path d="M8005.77 4167.31C8030.52 4123.63 8312.69 4130.9 8462.77 4152.13 8445.35 4386.47 8343.34 4556.98 8222.07 4542.25 8117.61 4529.57 8030.41 4383.25 8000.37 4190.89 8001.07 4180.62 8002.79 4172.57 8005.77 4167.31Z" fill="#B25A46"/><g opacity="0.42"><path d="M8008.39 4280.77C8006.58 4269.96 8005 4259.6 8003.74 4249.84 8122.37 4228.31 8405.34 4238.96 8547.97 4258.39 8546.49 4268.55 8544.86 4279.09 8543.04 4290.12 8389.84 4275.39 8146.93 4267.92 8008.39 4280.77Z" fill="#875142"/><path d="M8021.58 4348.47C8020.29 4342.52 8019.04 4336.62 8017.84 4330.81 8140.6 4320.94 8395.35 4326.13 8534.97 4335.88 8533.88 4341.82 8532.76 4347.78 8531.61 4353.83 8384.07 4346.3 8159.64 4342.47 8021.58 4348.47Z" fill="#875142"/></g><ellipse cx="5954.7" cy="959.02" rx="343.61" ry="351.81" fill="#8E6661"/><circle cx="5954.7" cy="941.42" r="343.61" fill="#443438" transform="matrix(0.707107 -0.707107 0.707107 0.707107 1078.41 4486.35)"/><circle cx="5954.7" cy="941.42" r="295.89" fill="#F9EBDB" transform="matrix(0.707107 -0.707107 0.707107 0.707107 1078.41 4486.35)"/><path d="M5918.91 941.42C5918.9 961.192 5934.93 977.224 5954.7 977.23 5974.47 977.235 5990.5 961.212 5990.51 941.44 5990.52 921.668 5974.49 905.635 5954.72 905.63 5954.71 905.63 5954.71 905.63 5954.7 905.63 5934.93 905.63 5918.91 921.654 5918.91 941.42Z" fill="#634D49"/><rect x="5938.79" y="957.33" width="31.82" height="206.8" fill="#634D49"/><rect x="5859.25" y="753.71" width="31.82" height="206.8" fill="#634D49" transform="matrix(-0.707107 0.707107 -0.707107 -0.707107 10635.6 -2691.2)"/><path d="M2415.88 1570.43 1646.7 1570.43 1584.29 2994.19 1892.37 2988.97 2662.6 2975.91 3438.68 2962.76 3438.68 1570.43 3151.7 1570.43 2415.88 1570.43Z" fill="#7C6C56" opacity="0.39"/><path d="M3094.51 3175.71 3094.51 3175.71 3014.97 3172.38 2054.09 3132.17 2054.09 3132.17 1951.99 3127.9 1951.99 3127.9 1943.98 3227.37 1893.87 3849.26 1885.13 3957.71 1885.13 3957.71 2142.57 3957.71 2142.57 3957.71 2311.11 3957.71 3271.18 3957.71 3271.18 3856.77 3271.18 3276.23 3271.18 3183.1 3181.32 3179.34 3094.51 3175.71Z" fill="#7C6C56" opacity="0.39"/><path d="M4738.64 1786.44 4673.36 1786.44 4164.07 1786.44 3682.25 1786.44 3580.47 1786.44 3503.03 2967.45 3611.44 2962.2 3686.11 2958.59 4234.63 2932.06 4733.21 2907.95 4830.99 2903.22 4830.99 1786.44 4738.64 1786.44Z" fill="#7C6C56" opacity="0.39"/><rect x="1646.7" y="1500.6" width="1791.98" height="1392.33" fill="#753C47"/><path d="M3146.47 1500.6 2406.42 1500.6 1938.92 2892.93 2678.97 2892.93 3146.47 1500.6Z" fill="#5B2A36"/><rect x="1702.57" y="1552.17" width="1680.25" height="1289.19" fill="#5B2A36"/><rect x="1718.33" y="1569.36" width="1648.73" height="1254.81" fill="#FFF8E6"/><rect x="1860.85" y="1736.95" width="1363.68" height="919.62" fill="#EDE2C8"/><rect x="2757.56" y="1767.29" width="433.4" height="229.65" fill="#D6C3B0"/><rect x="3109.94" y="2027.27" width="81.02" height="229.65" fill="#D6C3B0"/><rect x="2766.15" y="2169.09" width="151.93" height="122.22" fill="#D6C3B0"/><rect x="2379.4" y="2169.09" width="259.36" height="229.65" fill="#D6C3B0"/><rect x="2587.82" y="2169.09" width="151.93" height="436.18" fill="#D6C3B0"/><rect x="1915.28" y="2169.09" width="151.93" height="436.18" fill="#D6C3B0"/><rect x="3039.03" y="2461.05" width="151.92" height="144.21" fill="#D6C3B0"/><rect x="2768.3" y="2461.05" width="242.8" height="144.21" fill="#D6C3B0"/><rect x="2132.3" y="2525.51" width="242.8" height="79.75" fill="#D6C3B0"/><rect x="2523.35" y="1767.29" width="194.9" height="229.65" fill="#D6C3B0"/><rect x="1915.28" y="1767.29" width="336.71" height="229.65" fill="#D6C3B0"/><rect x="2291.3" y="1767.29" width="194.9" height="229.65" fill="#D6C3B0"/><rect x="2132.3" y="2525.51" width="70.91" height="79.75" fill="#C1AD9A"/><rect x="2226.84" y="2525.51" width="20.41" height="79.75" fill="#C1AD9A"/><rect x="2269.46" y="2525.51" width="20.41" height="79.75" fill="#C1AD9A"/><rect x="2312.07" y="2525.51" width="20.41" height="79.75" fill="#C1AD9A"/><rect x="2354.69" y="2525.51" width="20.41" height="79.75" fill="#C1AD9A"/><path d="M3150.76 2385.58 2850 2385.58C2843.03 2385.38 2837.53 2379.57 2837.73 2372.6 2837.92 2365.9 2843.3 2360.52 2850 2360.33L3150.81 2360.33C3157.78 2360.53 3163.28 2366.34 3163.08 2373.31 3162.89 2380.01 3157.51 2385.39 3150.81 2385.58Z" fill="#AA3D4F"/><path d="M3011.1 2379.13C3004.13 2379.13 2998.48 2373.48 2998.48 2366.51L2998.48 2089.07 1969 2089.07C1962.03 2088.87 1956.53 2083.06 1956.73 2076.09 1956.92 2069.39 1962.3 2064.01 1969 2063.82L3023.72 2063.82 3023.72 2366.51C3023.72 2373.48 3018.07 2379.13 3011.1 2379.13Z" fill="#AA3D4F"/><path d="M2248.33 2482.27C2241.36 2482.28 2235.71 2476.63 2235.7 2469.66 2235.7 2469.65 2235.7 2469.65 2235.7 2469.64L2235.7 2078.64C2235.5 2071.67 2241 2065.86 2247.97 2065.66 2254.94 2065.46 2260.75 2070.96 2260.95 2077.93 2260.96 2078.17 2260.96 2078.4 2260.95 2078.64L2260.95 2469.64C2260.96 2476.61 2255.31 2482.26 2248.34 2482.27 2248.34 2482.27 2248.33 2482.27 2248.33 2482.27Z" fill="#AA3D4F"/><path d="M2246.45 2486.66C2244.22 2486.66 2242.07 2485.77 2240.5 2484.19L2191.08 2434.77C2187.79 2431.48 2187.79 2426.16 2191.08 2422.87 2194.37 2419.58 2199.69 2419.58 2202.98 2422.87L2246.82 2466.71 2294.07 2425.19C2297.56 2422.12 2302.88 2422.46 2305.95 2425.95 2309.01 2429.45 2308.67 2434.76 2305.18 2437.83L2252 2484.56C2250.47 2485.91 2248.49 2486.66 2246.45 2486.66Z" fill="#AA3D4F"/><path d="M2124.67 2075C2124.67 2076.66 2124.02 2078.25 2122.84 2079.42L2086.14 2116.13C2083.7 2118.57 2079.74 2118.57 2077.3 2116.13 2074.86 2113.69 2074.86 2109.73 2077.3 2107.29L2109.86 2074.73 2079 2039.6C2076.75 2036.98 2077.04 2033.04 2079.66 2030.79 2082.24 2028.56 2086.12 2028.82 2088.39 2031.35L2123.09 2070.85C2124.11 2071.99 2124.68 2073.47 2124.67 2075Z" fill="#AA3D4F"/><path d="M2628.39 2072.18C2628.39 2070.52 2629.05 2068.93 2630.22 2067.76L2666.92 2031.06C2669.29 2028.55 2673.24 2028.43 2675.75 2030.79 2678.27 2033.16 2678.39 2037.12 2676.02 2039.63 2675.94 2039.72 2675.85 2039.81 2675.76 2039.89L2643.2 2072.46 2674.04 2107.55C2676.34 2110.12 2676.13 2114.07 2673.56 2116.38 2670.99 2118.68 2667.04 2118.46 2664.73 2115.89 2664.7 2115.86 2664.68 2115.83 2664.65 2115.8L2629.94 2076.31C2628.94 2075.17 2628.39 2073.7 2628.39 2072.18Z" fill="#AA3D4F"/><path d="M3014.69 2197.17C3016.4 2197.17 3018.04 2197.85 3019.25 2199.06L3057.1 2236.91C3059.8 2239.23 3060.11 2243.3 3057.79 2246.01 3055.47 2248.71 3051.4 2249.02 3048.7 2246.7 3048.45 2246.48 3048.21 2246.25 3048 2246L3014.43 2212.42 2978.23 2244.22C2975.56 2246.57 2971.48 2246.31 2969.14 2243.64 2966.79 2240.96 2967.05 2236.89 2969.72 2234.54L3010.45 2198.75C3011.62 2197.72 3013.13 2197.16 3014.69 2197.17Z" fill="#AA3D4F"/><path d="M3043.51 2371.47C3043.52 2369.69 3044.24 2367.99 3045.51 2366.75L3084.68 2327.58C3087.35 2325.04 3091.57 2325.14 3094.11 2327.81 3096.56 2330.39 3096.56 2334.43 3094.11 2337.01L3059.36 2371.76 3092.27 2409.21C3094.58 2412.08 3094.13 2416.28 3091.26 2418.59 3088.57 2420.76 3084.67 2420.51 3082.27 2418.02L3045.27 2375.87C3044.16 2374.67 3043.54 2373.1 3043.51 2371.47Z" fill="#AA3D4F"/><path d="M2991.58 2374.44C2991.57 2376.22 2990.85 2377.92 2989.58 2379.16L2950.42 2418.33C2947.71 2420.84 2943.49 2420.67 2940.98 2417.97 2938.61 2415.41 2938.61 2411.45 2940.98 2408.89L2975.73 2374.15 2942.82 2336.7C2940.51 2333.83 2940.96 2329.63 2943.83 2327.32 2946.52 2325.15 2950.42 2325.4 2952.82 2327.89L2989.82 2370.04C2990.93 2371.24 2991.55 2372.81 2991.58 2374.44Z" fill="#AA3D4F"/><rect x="1978.3" y="3112.36" width="1268.36" height="630.84" fill="#3D1722"/><rect x="2076.38" y="3223.82" width="1038.76" height="541.67" fill="#5E2634"/><path d="M3033.35 3387.85C2673.77 3464.99 2179.7 3334.63 2154.99 3335.28 2119.66 3362.89 2106.99 3403.45 2111.08 3453.65 2514.57 3526.47 3041.59 3439.74 3041.59 3439.74Z" fill="#3D1722"/><path d="M2767.41 3665.33C2938.76 3697.98 3063.88 3665.18 3063.88 3665.18 3063.88 3665.18 3055.49 3361 2929 3237.7 2924 3232.86 2914.58 3236.16 2915.72 3242.35 2922.21 3277.73 2931.12 3350.8 2900.72 3378.41 2873.72 3402.91 2845.53 3388.64 2823.63 3382.67 2811.84 3379.46 2799.79 3386.4 2799.11 3396.48 2792.17 3499.12 2795.52 3594.73 2767.41 3665.33Z" fill="#3D1722"/><path d="M3016.89 3354.74C2668.5 3420.74 2189.8 3309.2 2165.89 3309.74 2131.66 3333.37 2119.34 3368.08 2123.34 3411.04 2514.28 3473.34 3024.9 3399.13 3024.9 3399.13Z" fill="#DD8E26"/><path d="M2794.16 3629.66C2934.59 3655.88 3037.16 3618.37 3037.16 3618.37 3037.16 3618.37 3030.29 3314.47 2926.61 3195.96 2922.55 3191.31 2914.8 3194.96 2915.73 3201.11 2921.05 3236.24 2928.35 3308.98 2903.41 3337.73 2881.28 3363.25 2858.18 3350.04 2840.23 3344.89 2830.57 3342.12 2820.69 3349.52 2820.14 3359.62 2814.45 3462.53 2817.2 3558 2794.16 3629.66Z" fill="#C41818"/><path d="M3174.22 3052.18 1936 3052.18 1936 3826.79 3271.18 3826.79 3271.18 3052.18ZM3174.22 3729.82 2032.92 3729.82 2032.92 3149.14 3174.22 3149.14Z" fill="#C41818"/><path d="M2881.09 3584.93C2855.92 3584.93 2830.8 3582.87 2805.97 3578.78 2803.3 3596.01 2799.35 3613.02 2794.16 3629.66 2934.59 3655.88 3037.16 3618.37 3037.16 3618.37 3037.16 3618.37 3036.62 3594.94 3033.64 3558.59 2987.65 3575.42 2935.89 3584.93 2881.09 3584.93Z" fill="#F2EDD7"/><path d="M2547.08 3149.14 2955.08 3149.14C2993.63 3112.41 3035.98 3079.9 3081.41 3052.14L2538.25 3052.14C2543.77 3084.19 2546.72 3116.62 2547.08 3149.14Z" fill="#FF2C2C"/><path d="M2696.83 3729.82 2293.52 3729.82C2255.74 3766.38 2214.24 3798.89 2169.7 3826.82L2704.9 3826.82C2699.65 3794.75 2696.95 3762.32 2696.83 3729.82Z" fill="#FF2C2C"/><path d="M3227.65 3771 1981.72 3771 1981.72 3106.86 3227.65 3106.86ZM1988.27 3764.45 3221.1 3764.45 3221.1 3113.45 1988.27 3113.45Z" fill="#3D1722"/><rect x="2497.69" y="3737.62" width="229.6" height="62.42" fill="#F2EDD7"/><rect x="2558.26" y="3752.98" width="108.45" height="29.48" fill="#5E2634"/><path d="M2969.9 3296.06C2966.83 3276.58 2962.18 3257.39 2956.01 3238.66 2947.73 3223.43 2937.86 3209.12 2926.58 3195.96 2922.52 3191.31 2914.77 3194.96 2915.7 3201.11 2921.02 3236.24 2928.32 3308.98 2903.38 3337.73 2881.25 3363.25 2858.15 3350.04 2840.21 3344.89 2830.54 3342.12 2820.66 3349.52 2820.11 3359.62 2817.46 3407.7 2816.63 3454.11 2814.17 3497.28 2836.52 3516.93 2861.27 3526.57 2885.67 3522.7 2950.42 3512.43 2988.13 3411 2969.9 3296.06Z" fill="#E52525"/><path d="M2750.62 3426.52C2755.53 3409.93 2758.66 3392.87 2759.95 3375.62 2504.61 3374.99 2251.95 3323.93 2183.21 3312.16 2176.38 3347.91 2177.75 3384.75 2187.21 3419.9 2378.15 3442.83 2588.47 3437.52 2750.62 3426.52Z" fill="#E2C54B"/><path d="M2407.14 3348.81C2391.07 3346.62 2375.54 3344.4 2360.65 3342.17L2368.36 3433.75C2387.77 3434.5 2407.15 3434.99 2426.47 3435.35Z" fill="#DD8E26"/><path d="M2216.56 3423.15C2239.15 3425.5 2261.92 3427.5 2284.86 3429.15L2296.76 3332.15C2272.85 3328.15 2251.65 3324.47 2233.53 3321.22 2225.01 3354.66 2219.33 3388.76 2216.56 3423.15Z" fill="#DD8E26"/><path d="M2299.29 3443.38C2299.29 3458.15 2311.27 3470.13 2326.04 3470.13 2340.81 3470.13 2352.79 3458.15 2352.79 3443.38 2352.79 3428.61 2340.81 3416.63 2326.04 3416.63 2311.27 3416.63 2299.29 3428.61 2299.29 3443.38Z" fill="#EDE6C8"/><path d="M2670.44 3443.38C2670.44 3458.15 2682.42 3470.13 2697.19 3470.13 2711.96 3470.13 2723.94 3458.15 2723.94 3443.38 2723.94 3428.61 2711.96 3416.63 2697.19 3416.63 2682.42 3416.63 2670.44 3428.61 2670.44 3443.38Z" fill="#EDE6C8"/><path d="M2366.86 3162.28 2156.86 3722.26 2617.15 3722.26 2757.15 3162.28 2366.86 3162.28Z" fill="#EDE6C8" opacity="0.39"/><path d="M2861.88 3162.28 2698.36 3722.26 2896.41 3722.26 2989.92 3162.28 2861.88 3162.28Z" fill="#EDE6C8" opacity="0.39"/><rect x="3666.48" y="1768.36" width="1085.18" height="969.83" fill="#3D1722"/><rect x="3711.98" y="1849.81" width="994.18" height="902.79" fill="#5E2634"/><path d="M3848.13 2037.5 3941.13 2086.23 3982.64 2018.52 3907.77 1953.74C3902.84 1949.49 3895.52 1949.54 3890.65 1953.87 3869.62 1972.23 3853.05 1995.15 3842.21 2020.87 3839.54 2027.11 3842.12 2034.35 3848.13 2037.5Z" fill="#3D1722"/><path d="M4456.31 1945.09 4399.1 2033.15 4462.63 2080.8 4534.13 2012.31C4538.82 2007.79 4539.45 2000.5 4535.6 1995.25 4519.28 1972.6 4498.01 1953.97 4473.41 1940.77 4467.46 1937.53 4460.01 1939.41 4456.31 1945.09Z" fill="#3D1722"/><path d="M4450.74 2629C4567.52 2605.37 4579.17 2406.92 4588.16 2282.77 4608.08 2007.55 4391.02 1887.77 4176.5 1887.77 3961.98 1887.77 3788.08 2092.99 3788.08 2302.21 3788.08 2455.43 3902.76 2592.52 4048.39 2654.97 4049.32 2655.38 4050.25 2655.76 4051.18 2656.16 4054.64 2657.62 4058.1 2659.08 4061.59 2660.45 4191.85 2713 4330.43 2700.53 4458.69 2677.79 4504.83 2669.78 4551.38 2664.38 4598.12 2661.6L4608.12 2619.51C4608.12 2619.51 4533.18 2626.24 4450.74 2629Z" fill="#3D1722"/><path d="M4442.88 2583.83C4553.97 2560.83 4565.06 2367.22 4573.6 2246.13 4592.55 1977.7 4386.07 1860.85 4182.01 1860.85 3977.95 1860.85 3812.52 2061 3812.52 2265.07 3812.52 2414.52 3921.62 2548.23 4060.15 2609.15 4061.03 2609.55 4061.91 2609.91 4062.8 2610.3 4066.09 2611.73 4069.38 2613.15 4072.7 2614.49 4196.61 2665.74 4328.44 2653.58 4450.44 2631.4 4494.31 2623.59 4538.6 2618.32 4583.08 2615.61L4592.55 2574.56C4592.55 2574.56 4521.3 2581.18 4442.88 2583.83Z" fill="#E2C896"/><path d="M4182 1889.27C4373.17 1889.27 4566.45 1991.83 4574.53 2225.5 4581.69 1971.74 4380.74 1860.85 4182 1860.85 3977.94 1860.85 3812.51 2061.01 3812.51 2265.07 3812.51 2269.91 3812.64 2274.73 3812.86 2279.54 3820.19 2080.4 3982.61 1889.27 4182 1889.27Z" fill="#D1B07C"/><path d="M3892.54 2256.62C3895.88 2138.48 3991.73 2009.19 4075.32 1991.36 4158.91 1973.53 4309.32 1990.29 4345.32 2008.08 4388.24 2029.25 4427.24 2052.38 4449.81 2100.58 4465.95 2135.04 4501.08 2249.93 4501.08 2249.93 4501.08 2249.93 4499.94 2066 4442 2039.28 4427.51 2032.6 4365.1 1994.7 4365.1 1994.7L4250.3 1963.49C4250.3 1963.49 4128.81 1947.89 4119.9 1951.24 4110.99 1954.59 4025.17 1979.1 4014 1988 4002.83 1996.9 3952.7 2040.39 3943.79 2053.76 3934.88 2067.13 3905.89 2117.29 3904.79 2128.44 3903.69 2139.59 3888.07 2209.8 3888.07 2214.26 3888.07 2218.72 3892.54 2256.62 3892.54 2256.62Z" fill="#D1B07C"/><path d="M4269.26 2502.94C4148.89 2501.26 4023.5 2407.64 4023.5 2407.64 4078.67 2472.84 4178.98 2517.98 4212.41 2526.34 4245.84 2534.7 4337.8 2531.34 4367.89 2519.66 4397.98 2507.98 4459.84 2462.81 4459.84 2462.81L4488.27 2400.96C4488.27 2400.96 4389.63 2504.61 4269.26 2502.94Z" fill="#D1B07C"/><path d="M4046.35 2212C4037.43 2360.23 4197.93 2414.85 4255.88 2434.91 4313.83 2454.97 4427.52 2399.24 4427.52 2399.24 4380.71 2451.63 4306.52 2477.47 4192.35 2449.4 4028.34 2409.11 4012.91 2228.76 4046.35 2212Z" fill="#D1B07C"/><path d="M4150.56 2247.15C4175.63 2300.65 4242.51 2344.15 4274.27 2354.15 4306.03 2364.15 4376.27 2315.7 4376.27 2315.7 4376.27 2315.7 4357.88 2385.92 4326.12 2389.26 4294.36 2392.6 4170.64 2340.78 4155.59 2305.67 4140.54 2270.56 4150.56 2247.15 4150.56 2247.15Z" fill="#D1B07C"/><path d="M3961.64 2202C3985.05 2146.83 4043.56 2063.24 4152.23 2076.61 4260.9 2089.98 4337.8 2106.7 4372.91 2141.81 4408.02 2176.92 4441.45 2247.14 4441.45 2247.14 4441.45 2247.14 4444.8 2133.45 4371.24 2095 4297.68 2056.55 4122.14 2041.5 4122.14 2041.5 4048.75 2052.71 3985 2084.49 3961.64 2202Z" fill="#D1B07C"/><path d="M4088.05 2543.15C4158.27 2571.15 4243.75 2585.15 4343.13 2585.15 4362.38 2585.15 4425.07 2582.55 4445.36 2581.49 4451.06 2577.42 4347.46 2573.99 4314.22 2573.08 4092.44 2567.08 3950.22 2486.99 3908.64 2341.62 3878.12 2235.02 3900.28 2116.67 3965.09 2040.11 3998.09 2001.11 4057 1955.59 4149.48 1960.24 4328.95 1969.36 4437.12 2014.33 4470.99 2093.91 4501.14 2164.75 4506.77 2371.96 4459.09 2443.33 4411.69 2514.33 4281.94 2535.47 4190.49 2510.7 4097.65 2485.56 3977.32 2380.4 3961.35 2282.49 3952.21 2226.49 3970.59 2143.11 4023.41 2092.23 4059.22 2057.73 4105.93 2043.07 4158.55 2049.86L4166.13 2050.86C4319.01 2070.55 4420.02 2083.56 4431.19 2225.65 4442.69 2371.93 4442.38 2437.41 4314.27 2456.76 4254.99 2465.76 4191.73 2449.76 4136.17 2411.95 4084.17 2376.57 4047.96 2327.38 4039.17 2280.38 4032.33 2243.84 4045.37 2210.14 4075.89 2185.51 4113.99 2154.76 4171.19 2144.2 4218.23 2159.22 4310.52 2188.7 4375.48 2215.81 4370.65 2296.62 4367.9 2342.62 4358.72 2367.51 4340.86 2377.2 4321.68 2387.62 4289.86 2382.04 4240.76 2359.65 4171.67 2328.14 4148.17 2291.65 4149.03 2270.02 4149.61 2255.7 4160.14 2244.67 4178.7 2238.96 4214.3 2228.01 4242.83 2227.79 4261.22 2238.32 4273.95 2245.62 4282.22 2258.32 4285.74 2276.12 4289.4 2294.54 4284.15 2307.25 4271.34 2310.99 4259.1 2314.56 4241.34 2308.68 4232.78 2292.67 4224.22 2276.66 4225.96 2270.15 4227.07 2268.04 4227.88 2266.53 4229.33 2265.46 4231.01 2265.12 4234.16 2264.92 4236.55 2262.21 4236.35 2259.07 4236.35 2258.95 4236.33 2258.83 4236.32 2258.71 4235.76 2255.38 4232.68 2253.07 4229.32 2253.47 4223.81 2254.12 4218.92 2257.33 4216.13 2262.13 4211.59 2270.21 4213.47 2282.13 4221.73 2297.65 4232.13 2317.15 4255.67 2327.91 4275.31 2322.19 4289.96 2317.91 4303.58 2303.09 4297.86 2274.34 4293.61 2253.01 4283.34 2237.54 4267.32 2228.34 4245.38 2215.78 4214.15 2215.59 4174.47 2227.79 4151.19 2234.96 4137.39 2250.03 4136.63 2269.16 4135.27 2302.98 4173.22 2341.67 4235.63 2370.16 4289.53 2394.73 4323.95 2400.04 4347.23 2387.4 4369.23 2375.47 4379.9 2348.63 4382.94 2297.68 4388.68 2201.46 4300 2173.13 4221.75 2148.14 4170.75 2131.85 4108.8 2143.24 4067.6 2176.49 4033.74 2203.82 4019.29 2241.31 4026.92 2282.04 4036.29 2332.04 4074.49 2384.17 4129.12 2421.37 4187.44 2461.1 4254.02 2477.77 4316.58 2468.37 4454.75 2447.5 4455.23 2374.72 4443.48 2225.23 4431.54 2073.34 4320.72 2059.07 4167.33 2039.31L4159.76 2038.31C4103.19 2031 4052.93 2046.78 4014.38 2083.92 3956.23 2139.92 3939.76 2226.87 3949.07 2283.92 3965.75 2386.17 4090.89 2495.85 4187.42 2521.99 4283.1 2547.88 4419.31 2525.09 4469.57 2449.87 4519.83 2374.65 4514.15 2164.51 4482.4 2089.87 4446.48 2005.49 4334.54 1957.94 4149.67 1948.55 4072.4 1944.62 4005.15 1973.69 3955.27 2032.55 3888.15 2111.84 3865.14 2234.2 3896.65 2344.26 3923 2436.16 3987.37 2503.05 4088.05 2543.15Z" fill="#8E6559"/><path d="M4470.75 2607.36C4470.75 2607.36 4282.63 2628.36 4187.34 2618.29 4112.9 2610.46 3967.06 2562.84 3849.41 2414.08 3892.74 2499.36 3970.22 2569.6 4060.15 2609.15 4061.03 2609.55 4061.91 2609.91 4062.8 2610.3 4066.09 2611.73 4069.38 2613.15 4072.7 2614.49 4196.61 2665.74 4328.44 2653.58 4450.44 2631.4 4459.93 2629.68 4469.27 2628.15 4478.38 2626.76Z" fill="#D1B07C"/><path d="M4470.75 2607.36C4466.68 2572.8 4455.07 2544.95 4435.39 2547.36 4415.71 2549.77 4408.94 2578.04 4413 2612.59 4417.06 2647.14 4429.14 2675.01 4448.82 2672.59 4468.5 2670.17 4474.81 2641.91 4470.75 2607.36Z" fill="#EAE2C1"/><path d="M4441.84 2644.46C4431.84 2621.78 4429.05 2598.59 4434.94 2574.77 4436.37 2569.08 4441.49 2565.08 4447.36 2565.08L4635.53 2565.08C4642.84 2565.08 4649 2570.55 4649.87 2577.81L4653.02 2604.08C4653.96 2611.74 4648.72 2618.78 4641.12 2620.08L4455.7 2651.92C4449.92 2652.9 4444.2 2649.83 4441.84 2644.46Z" fill="#F2EDD7"/><path d="M4734 1690.43 3580.46 1690.43 3580.46 2807.21 4831 2807.21 4831 1690.43ZM3677.43 2710.24 3677.43 1787.4 4734 1787.4 4734 2710.24Z" fill="#C41818"/><path d="M4043.56 2421.85 3946.74 2538.5C3941.64 2544.62 3942.47 2553.72 3948.6 2558.82 3948.64 2558.86 3948.69 2558.9 3948.74 2558.94L3999.19 2599.76C4005.39 2604.77 4014.47 2603.81 4019.48 2597.62 4019.83 2597.19 4020.15 2596.74 4020.45 2596.27L4102.05 2467.83C4085.8 2448.77 4065.92 2433.14 4043.56 2421.85Z" fill="#F2EDD7"/><path d="M4441.82 1921.68 4384.61 2009.75 4448.14 2057.4 4519.64 1988.91C4524.33 1984.39 4524.96 1977.1 4521.11 1971.85 4504.79 1949.2 4483.52 1930.57 4458.92 1917.37 4452.97 1914.13 4445.53 1916.01 4441.82 1921.68Z" fill="#F2EDD7"/><path d="M3859.41 2007.22 3943.61 2069.98 3995.25 2009.66 3931.51 1933.89C3927.3 1928.92 3920.07 1927.82 3914.58 1931.33 3890.92 1946.15 3870.96 1966.18 3856.21 1989.88 3852.59 1995.61 3853.99 2003.16 3859.41 2007.22Z" fill="#F2EDD7"/><path d="M4646.14 2590.48C4644.94 2582.48 4641.63 2576.48 4638.76 2576.96 4635.89 2577.44 4634.53 2584.29 4635.76 2592.25 4636.99 2600.21 4640.27 2606.25 4643.14 2605.77 4646.01 2605.29 4647.35 2598.44 4646.14 2590.48Z" fill="#8E6559"/><path d="M4164.9 1787.4 4556.15 1787.4C4591.74 1749.54 4628.61 1716.98 4665.95 1690.4L4147.69 1690.4C4155.7 1722.29 4161.45 1754.7 4164.9 1787.4Z" fill="#FF2C2C"/><path d="M4235.84 2710.24 3851.49 2710.24C3816.92 2747.79 3781.08 2780.34 3744.72 2807.24L4252.06 2807.24C4244.43 2775.32 4239.01 2742.91 4235.84 2710.24Z" fill="#FF2C2C"/><path d="M4789.12 2763.67 3622.33 2763.67 3622.33 1730.62 4789.12 1730.62ZM3628.88 2757.13 4782.58 2757.13 4782.58 1737.13 3628.88 1737.13Z" fill="#3D1722"/><rect x="4090.93" y="2724.85" width="229.6" height="62.41" fill="#F2EDD7"/><rect x="4151.5" y="2740.21" width="108.45" height="29.48" fill="#5E2634"/><path d="M3936.78 1805.23 3726.78 2699.1 4187.07 2699.1 4327.07 1805.23 3936.78 1805.23Z" fill="#EDE6C8" opacity="0.39"/><path d="M4431.8 1805.23 4268.29 2699.1 4466.33 2699.1 4559.85 1805.23 4431.8 1805.23Z" fill="#EDE6C8" opacity="0.39"/></g></g></g></svg>