<svg viewBox="0 0 843.93 843.93" xmlns="http://www.w3.org/2000/svg" xmlns:xlink="http://www.w3.org/1999/xlink" overflow="hidden"><defs></defs><g id="Слой_2"><g id="Object"><circle cx="421.97" cy="421.97" r="421.97" fill="#FFFFFF" opacity="0.8"/><path d="M505.49 350.79 505.49 681.26C505.479 690.203 498.798 697.734 489.92 698.81 443.17 704.62 395.88 704.62 349.13 698.81 340.262 697.72 333.594 690.195 333.58 681.26L333.58 351.75C333.58 324.27 349.58 299.01 374.85 288.14 382.984 284.678 391.495 282.181 400.21 280.7L400.21 220.92 437.53 220.92 437.53 280C445.402 281.043 453.137 282.938 460.6 285.65 487.73 295.7 505.49 321.87 505.49 350.79Z" fill="#C12C14"/><rect x="406.88" y="423.48" width="98.62" height="166.58" fill="#C6B198"/><path d="M331.61 534.28 327.79 680.06 305.6 677.5 284.09 675.02 313.55 532.2 325.12 533.54 331.61 534.28Z" fill="#212121"/><path d="M381.42 237.87C327.32 238.81 320.12 313.96 316.96 354.14 311.56 422.85 321.4 492.14 314.81 560.49 314.04 568.49 326.55 568.49 327.31 560.49 333.08 500.63 325.31 439.42 328.01 379.23 329.59 343.79 329.88 251.23 381.42 250.37 389.42 250.23 389.48 237.73 381.42 237.87Z" fill="#212121"/><rect x="389.55" y="236.91" width="11.99" height="18.66" fill="#F6921E"/><rect x="437.53" y="246.24" width="4" height="15.99" fill="#F6921E"/><rect x="440.19" y="243.58" width="10.66" height="21.32" fill="#FAAF3B"/><rect x="373.56" y="231.58" width="17.32" height="29.32" fill="#FAAF3B"/><rect x="400.21" y="222.25" width="37.31" height="42.65" fill="#FAAF3B"/><path d="M397.55 228.92C406.88 228.92 576.55 250.84 596.12 252.92 621.44 255.59 638.76 242.26 558.8 228.92 526.8 223.59 492.58 218.07 466.85 218.25 423.63 218.57 397.55 228.92 397.55 228.92Z" fill="#A02315"/><path d="M400.21 207.59C400.21 207.59 540.14 141 562.8 141 585.46 141 593.45 151.66 593.45 151.66L465.51 204.93 466.85 222.25 397.55 228.92C397.55 228.92 392.22 219.59 400.21 207.59Z" fill="#C12C14"/><path d="M412.21 221.59C412.21 224.169 410.119 226.26 407.54 226.26 404.961 226.26 402.87 224.169 402.87 221.59 402.87 219.011 404.961 216.92 407.54 216.92 410.119 216.92 412.21 219.011 412.21 221.59Z" fill="#B2B2B2"/><path d="M458.85 216.26C458.85 218.839 456.759 220.93 454.18 220.93 451.601 220.93 449.51 218.839 449.51 216.26 449.51 213.681 451.601 211.59 454.18 211.59 454.183 211.59 454.187 211.59 454.19 211.59 456.764 211.59 458.85 213.676 458.85 216.25 458.85 216.253 458.85 216.257 458.85 216.26Z" fill="#B2B2B2"/><path d="M331.61 534.28 327.79 680.06 305.6 677.5 325.12 533.54 331.61 534.28Z" fill="#1A1A1A"/></g></g></svg>