<svg viewBox="0 0 843.93 843.93" xmlns="http://www.w3.org/2000/svg" xmlns:xlink="http://www.w3.org/1999/xlink" overflow="hidden"><defs></defs><g id="Слой_2"><g id="Object"><circle cx="421.97" cy="421.97" r="421.97" fill="#FFFFFF" opacity="0.8"/><path d="M649.64 642.28 208.73 642.28 208.73 201.37 649.64 201.37ZM225.16 625.85 633.21 625.85 633.21 217.85 225.16 217.85Z"/><rect x="216.94" y="402.76" width="145.62" height="16.43"/><rect x="497.35" y="337.7" width="145.62" height="16.43"/><rect x="596.49" y="477.12" width="46.48" height="16.43"/><rect x="467.08" y="474.03" width="46.48" height="16.43"/><rect x="346.73" y="209.58" width="16.43" height="148.72"/><rect x="468.99" y="483.79" width="16.43" height="148.72"/><rect x="215.39" y="477.12" width="46.48" height="16.43"/><rect x="344.81" y="474.03" width="46.48" height="16.43"/><rect x="372.94" y="483.79" width="16.43" height="148.72"/><rect x="487.58" y="253.79" width="16.43" height="102.25"/><path d="M338.93 377.74 286.65 377.74C285.137 377.74 283.91 376.513 283.91 375 283.91 373.487 285.137 372.26 286.65 372.26L338.93 372.26C340.443 372.26 341.67 373.487 341.67 375 341.67 376.513 340.443 377.74 338.93 377.74Z" fill="#C12C14"/><path d="M339.3 377.81C338.661 377.81 338.042 377.587 337.55 377.18L321.11 363.5C319.947 362.536 319.786 360.813 320.75 359.65 321.714 358.487 323.437 358.326 324.6 359.29L341.05 373C342.215 373.965 342.377 375.693 341.412 376.858 340.891 377.487 340.117 377.851 339.3 377.85Z" fill="#C12C14"/><path d="M322.11 390.48C320.597 390.478 319.371 389.25 319.373 387.737 319.374 386.871 319.785 386.056 320.48 385.54L337.71 372.86C338.975 372.03 340.674 372.383 341.504 373.648 342.272 374.82 342.033 376.382 340.95 377.27L323.73 389.94C323.264 390.292 322.695 390.482 322.11 390.48Z" fill="#C12C14"/><path d="M400.9 445.9 348.63 445.9C347.12 445.991 345.821 444.841 345.73 443.33 345.638 441.82 346.789 440.521 348.299 440.43 348.409 440.423 348.52 440.423 348.63 440.43L400.9 440.43C402.41 440.339 403.709 441.489 403.8 443 403.892 444.51 402.741 445.809 401.231 445.9 401.121 445.907 401.01 445.907 400.9 445.9Z" fill="#C12C14"/><path d="M401.27 446C400.631 446 400.012 445.777 399.52 445.37L383.07 431.7C381.905 430.734 381.743 429.005 382.71 427.84 383.677 426.675 385.405 426.514 386.57 427.48L403 441.13C404.165 442.087 404.335 443.807 403.378 444.972 402.855 445.609 402.073 445.975 401.25 445.97Z" fill="#C12C14"/><path d="M384.07 458.64C383.201 458.644 382.383 458.231 381.87 457.53 380.971 456.319 381.225 454.609 382.435 453.711 382.44 453.707 382.445 453.704 382.45 453.7L399.67 441C400.831 440.03 402.559 440.184 403.53 441.345 404.5 442.506 404.345 444.234 403.184 445.205 403.1 445.275 403.012 445.34 402.92 445.4L385.69 458.08C385.226 458.438 384.657 458.635 384.07 458.64Z" fill="#C12C14"/><path d="M515.94 237.45 463.66 237.45C462.147 237.45 460.92 236.223 460.92 234.71 460.92 233.197 462.147 231.97 463.66 231.97L515.94 231.97C517.453 231.97 518.68 233.197 518.68 234.71 518.68 236.223 517.453 237.45 515.94 237.45Z" fill="#C12C14"/><path d="M479.74 251.05C479.101 251.051 478.482 250.828 477.99 250.42L461.54 236.75C460.375 235.784 460.214 234.055 461.18 232.89 462.147 231.725 463.875 231.564 465.04 232.53L481.48 246.21C482.645 247.167 482.814 248.887 481.858 250.052 481.337 250.686 480.56 251.052 479.74 251.05Z" fill="#C12C14"/><path d="M463.27 237.38C461.762 237.39 460.532 236.175 460.523 234.667 460.517 233.787 460.937 232.957 461.65 232.44L478.87 219.77C480.085 218.875 481.795 219.135 482.69 220.35 483.585 221.565 483.325 223.275 482.11 224.17L464.89 236.85C464.42 237.195 463.853 237.381 463.27 237.38Z" fill="#C12C14"/><path d="M512.84 432.65 460.56 432.65C459.047 432.65 457.82 431.423 457.82 429.91 457.82 428.397 459.047 427.17 460.56 427.17L512.84 427.17C514.353 427.17 515.58 428.397 515.58 429.91 515.58 431.423 514.353 432.65 512.84 432.65Z" fill="#C12C14"/><path d="M476.64 446.25C476.001 446.25 475.382 446.027 474.89 445.62L458.44 432C457.275 431.034 457.113 429.305 458.08 428.14 459.047 426.975 460.775 426.814 461.94 427.78L478.39 441.45C479.555 442.415 479.717 444.143 478.752 445.308 478.231 445.937 477.457 446.301 476.64 446.3Z" fill="#C12C14"/><path d="M460.16 432.58C458.647 432.573 457.426 431.34 457.433 429.827 457.437 428.964 457.847 428.154 458.54 427.64L475.77 415C476.985 414.105 478.695 414.365 479.59 415.58 480.485 416.795 480.225 418.505 479.01 419.4L461.78 432.08C461.308 432.417 460.74 432.592 460.16 432.58Z" fill="#C12C14"/><path d="M427.2 347.48C425.691 347.474 424.47 346.249 424.47 344.74L424.47 292.46C424.379 290.949 425.529 289.651 427.04 289.56 428.55 289.468 429.849 290.619 429.94 292.129 429.947 292.239 429.947 292.35 429.94 292.46L429.94 344.74C429.94 346.253 428.713 347.48 427.2 347.48Z" fill="#C12C14"/><path d="M427.14 347.85C425.627 347.851 424.399 346.625 424.398 345.112 424.398 344.472 424.621 343.852 425.03 343.36L438.69 326.91C439.662 325.754 441.381 325.594 442.55 326.55 443.714 327.508 443.882 329.228 442.924 330.393 442.92 330.398 442.915 330.404 442.91 330.41L429.24 346.86C428.722 347.486 427.952 347.849 427.14 347.85Z" fill="#C12C14"/><path d="M427.14 347.88C426.27 347.88 425.452 347.464 424.94 346.76L412.26 329.53C411.301 328.36 411.471 326.633 412.642 325.674 413.812 324.714 415.538 324.885 416.498 326.055 416.559 326.131 416.617 326.209 416.67 326.29L429.34 343.52C430.235 344.74 429.971 346.455 428.75 347.35 428.283 347.692 427.719 347.878 427.14 347.88Z" fill="#C12C14"/><path d="M558.2 512.09C556.687 512.09 555.46 510.863 555.46 509.35L555.46 457.07C555.46 455.557 556.687 454.33 558.2 454.33 559.713 454.33 560.94 455.557 560.94 457.07L560.94 509.35C560.94 510.863 559.713 512.09 558.2 512.09Z" fill="#C12C14"/><path d="M544.6 475.89C543.087 475.891 541.859 474.665 541.858 473.152 541.858 472.512 542.081 471.892 542.49 471.4L556.16 455C557.177 453.879 558.91 453.795 560.03 454.812 561.083 455.767 561.23 457.369 560.37 458.5L546.7 474.9C546.182 475.526 545.412 475.889 544.6 475.89Z" fill="#C12C14"/><path d="M570.94 476.64C570.067 476.638 569.247 476.223 568.73 475.52L556.06 458.3C555.194 457.059 555.498 455.351 556.738 454.485 557.934 453.65 559.575 453.898 560.47 455.05L573.14 472.28C574.036 473.486 573.785 475.189 572.58 476.086 572.573 476.09 572.567 476.095 572.56 476.1 572.094 476.454 571.525 476.644 570.94 476.64Z" fill="#C12C14"/><path d="M301 512.09C299.487 512.09 298.26 510.863 298.26 509.35L298.26 457.07C298.169 455.56 299.319 454.261 300.83 454.17 302.34 454.078 303.639 455.229 303.73 456.739 303.737 456.849 303.737 456.96 303.73 457.07L303.73 509.35C303.73 510.859 302.509 512.084 301 512.09Z" fill="#C12C14"/><path d="M287.42 475.89C286.784 475.892 286.168 475.668 285.68 475.26 284.516 474.302 284.348 472.582 285.306 471.417 285.31 471.412 285.315 471.406 285.32 471.4L299 455C300.017 453.879 301.75 453.795 302.87 454.812 303.923 455.767 304.07 457.369 303.21 458.5L289.53 474.9C289.009 475.528 288.236 475.891 287.42 475.89Z" fill="#C12C14"/><path d="M313.77 476.64C312.897 476.638 312.077 476.223 311.56 475.52L298.89 458.3C297.92 457.139 298.074 455.411 299.235 454.44 300.396 453.47 302.124 453.625 303.095 454.786 303.165 454.87 303.23 454.958 303.29 455.05L316 472.28C316.896 473.486 316.645 475.189 315.44 476.086 315.433 476.09 315.427 476.095 315.42 476.1 314.946 476.459 314.365 476.649 313.77 476.64Z" fill="#C12C14"/><path d="M424.1 586.06C422.587 586.06 421.36 584.833 421.36 583.32L421.36 531C421.36 529.487 422.587 528.26 424.1 528.26 425.613 528.26 426.84 529.487 426.84 531L426.84 583.28C426.862 584.793 425.653 586.038 424.14 586.06 424.127 586.06 424.113 586.06 424.1 586.06Z" fill="#C12C14"/><path d="M424 586.43C422.487 586.431 421.259 585.205 421.258 583.692 421.258 583.052 421.481 582.432 421.89 581.94L435.56 565.49C436.476 564.286 438.195 564.052 439.4 564.968 440.604 565.884 440.838 567.603 439.922 568.807 439.874 568.87 439.823 568.931 439.77 568.99L426.11 585.44C425.588 586.066 424.815 586.429 424 586.43Z" fill="#C12C14"/><path d="M424 586.45C423.127 586.448 422.307 586.033 421.79 585.33L409.12 568.11C408.161 566.94 408.331 565.213 409.502 564.254 410.672 563.294 412.398 563.465 413.358 564.635 413.419 564.711 413.477 564.789 413.53 564.87L426.2 582.09C427.096 583.296 426.845 585 425.64 585.896 425.633 585.9 425.627 585.905 425.62 585.91 425.154 586.264 424.585 586.454 424 586.45Z" fill="#C12C14"/></g></g></svg>