<svg viewBox="0 0 843.93 843.93" xmlns="http://www.w3.org/2000/svg" xmlns:xlink="http://www.w3.org/1999/xlink" overflow="hidden"><defs></defs><g><g id="Слой_2"><g id="Object"><circle cx="421.97" cy="421.97" r="421.97" fill="#FFFFFF" opacity="0.8"/><circle cx="416.45" cy="365.83" r="191.8" fill="#988575"/><circle cx="416.45" cy="365.83" r="191.8" fill="#C12C14"/><path d="M556.88 235.25C570.061 261.734 576.908 290.918 576.88 320.5 576.88 426.43 491.01 512.3 385.08 512.3 331.784 512.355 280.883 490.165 244.65 451.08 277.026 516.35 343.591 557.638 416.45 557.64 522.38 557.64 608.26 471.76 608.26 365.83 608.316 317.362 589.949 270.684 556.88 235.25Z" fill="#B2B2B2" opacity="0.1"/><circle cx="416.45" cy="365.83" r="34.87" fill="#141414"/><circle cx="651.85" cy="405.94" r="40.1" fill="#191919"/><path d="M638.31 423.09C629.23 428.3 626.09 440.92 622.17 449.92 617.688 460.207 612.426 470.136 606.43 479.62 594.78 498.11 580.16 514.17 563.59 528.36 546.616 542.829 527.295 554.29 506.46 562.25 495.504 566.426 484.227 569.703 472.74 572.05 461.53 574.34 448.93 574.86 440.56 583.63 435.56 588.89 437.36 595.78 442.64 599.81 453.32 607.94 468.88 604.3 480.92 601.72 493.338 599.048 505.506 595.321 517.29 590.58 541.483 580.943 563.926 567.392 583.72 550.47 602.27 534.54 617.96 514.65 630.14 493.47 636.28 482.725 641.55 471.506 645.9 459.92 649.66 449.92 654.9 435.92 649.05 425.92 646.811 422.244 642.066 420.998 638.31 423.1Z" fill="#191919"/><rect x="287.42" y="529.74" width="251.09" height="48.82" fill="#0A0A0A"/><rect x="259.52" y="573.81" width="313.86" height="58.32"/><path d="M413 198.5C394.48 200.41 376 202.44 358.65 209.71 342.673 216.447 327.713 225.376 314.2 236.24 289.85 255.75 270.56 281.85 259.91 311.24 254.759 325.72 253.309 341.257 255.69 356.44 256.27 360.28 262.79 360.24 263.42 356.44 268.89 323.2 282.27 290.83 305.05 265.73 318.157 251.335 333.559 239.21 350.63 229.85 370.13 219.11 392.06 209.49 413.91 205.24 417.66 204.51 416.86 198.1 413 198.5Z" fill="#FFFFFF" opacity="0.5"/><path d="M406.4 344.38C404.735 345.438 403.207 346.698 401.85 348.13 400.528 349.615 399.365 351.234 398.38 352.96 397.443 354.75 396.747 356.657 396.31 358.63 396.16 359.26 396.05 359.9 395.96 360.55 395.51 362.213 395.51 363.967 395.96 365.63 396.208 366.488 396.564 367.312 397.02 368.08 398.312 370.26 400.416 371.839 402.87 372.47 401.29 371.237 399.703 370.013 398.11 368.8 398.406 369.433 398.74 370.048 399.11 370.64 400.348 372.715 402.583 373.99 405 374 407.416 374.017 409.654 372.733 410.86 370.64 411.16 370.009 411.494 369.395 411.86 368.8L405 372.75C406.715 372.706 408.395 372.265 409.91 371.46 411.365 370.588 412.584 369.373 413.46 367.92 414.092 366.81 414.516 365.593 414.71 364.33 414.977 363.348 415.311 362.386 415.71 361.45L414.71 363.76C415.34 362.33 415.94 360.88 416.54 359.44 416.22 360.21 415.89 360.97 415.54 361.74 416.321 359.882 417.296 358.112 418.45 356.46 418.75 355.76 419.04 355.06 419.34 354.35 419.707 353.212 419.762 351.997 419.5 350.83 419.295 348.912 418.437 347.122 417.07 345.76 415.948 344.737 414.622 343.964 413.18 343.49 412.041 343.127 410.826 343.075 409.66 343.34 408.494 343.377 407.359 343.722 406.37 344.34Z" fill="#FFFFFF" opacity="0.5"/><path d="M632.41 384.81 630.67 389.17C630.146 390.466 630.052 391.896 630.4 393.25 630.47 393.55 630.56 393.85 630.64 394.15 630.8 394.77 630.97 395.39 631.13 396.01 631.779 398.26 634.129 399.557 636.379 398.908 636.7 398.816 637.009 398.685 637.3 398.52L638.92 397.46 639.61 397C640.538 396.452 641.312 395.678 641.86 394.75 642.143 394.218 642.381 393.662 642.57 393.09 642.64 392.93 642.7 392.76 642.76 392.6 643.3 391.1 643.85 389.6 644.39 388.12 644.65 387.318 644.688 386.461 644.5 385.64 644.469 384.818 644.217 384.02 643.77 383.33 642.049 380.37 638.254 379.365 635.294 381.086 635.286 381.091 635.278 381.095 635.27 381.1L634.01 382.1C633.251 382.862 632.7 383.805 632.41 384.84Z" fill="#FFFFFF" opacity="0.5"/></g></g></g></svg>