<svg viewBox="0 0 843.93 843.93" xmlns="http://www.w3.org/2000/svg" xmlns:xlink="http://www.w3.org/1999/xlink" overflow="hidden"><defs></defs><g><g id="Слой_2"><g id="Object"><circle cx="421.97" cy="421.97" r="421.97" fill="#FFFFFF" opacity="0.8"/><path d="M436 423.79C436.006 431.323 429.903 437.434 422.37 437.44 414.837 437.446 408.726 431.343 408.72 423.81 408.714 416.277 414.817 410.166 422.35 410.16 422.357 410.16 422.363 410.16 422.37 410.16 429.895 410.166 435.994 416.265 436 423.79Z" fill="#C0272D"/><rect x="224.66" y="187.44" width="395.44" height="104.54" fill="#CBCBCB"/><rect x="220.11" y="187.44" width="404.53" height="68.18" fill="#161616"/><path d="M604.19 309.06C604.19 352.24 522.42 417.85 420.19 417.85 317.96 417.85 240.57 347.7 240.57 309.06 240.57 247.56 321.97 197.7 422.38 197.7 522.79 197.7 604.19 247.56 604.19 309.06Z" fill="#262626"/><rect x="240.57" y="291.98" width="363.62" height="45.45" fill="#B2B2B2"/><rect x="406.47" y="414.7" width="31.82" height="9.09" fill="#CBCBCB"/><rect x="220.11" y="250.39" width="404.53" height="4.35" fill="#B2B2B2" opacity="0.5"/><rect x="252.74" y="291.71" width="4.35" height="45.67" fill="#B2B2B2" opacity="0.5"/><rect x="270.13" y="291.71" width="4.35" height="45.67" fill="#B2B2B2" opacity="0.5"/><rect x="287.53" y="291.71" width="4.35" height="45.67" fill="#B2B2B2" opacity="0.5"/><rect x="304.93" y="291.71" width="4.35" height="45.67" fill="#B2B2B2" opacity="0.5"/><rect x="322.33" y="291.71" width="4.35" height="45.67" fill="#B2B2B2" opacity="0.5"/><rect x="339.73" y="291.71" width="4.35" height="45.67" fill="#B2B2B2" opacity="0.5"/><rect x="357.13" y="291.71" width="4.35" height="45.67" fill="#B2B2B2" opacity="0.5"/><rect x="374.53" y="291.71" width="4.35" height="45.67" fill="#B2B2B2" opacity="0.5"/><rect x="391.93" y="291.71" width="4.35" height="45.67" fill="#B2B2B2" opacity="0.5"/><rect x="409.33" y="291.71" width="4.35" height="45.67" fill="#B2B2B2" opacity="0.5"/><rect x="426.73" y="291.71" width="4.35" height="45.67" fill="#B2B2B2" opacity="0.5"/><rect x="444.13" y="291.71" width="4.35" height="45.67" fill="#B2B2B2" opacity="0.5"/><rect x="461.52" y="291.71" width="4.35" height="45.67" fill="#B2B2B2" opacity="0.5"/><rect x="478.92" y="291.71" width="4.35" height="45.67" fill="#B2B2B2" opacity="0.5"/><rect x="496.32" y="291.71" width="4.35" height="45.67" fill="#B2B2B2" opacity="0.5"/><rect x="513.72" y="291.71" width="4.35" height="45.67" fill="#B2B2B2" opacity="0.5"/><rect x="531.12" y="291.71" width="4.35" height="45.67" fill="#B2B2B2" opacity="0.5"/><rect x="548.52" y="291.71" width="4.35" height="45.67" fill="#B2B2B2" opacity="0.5"/><rect x="565.92" y="291.71" width="4.35" height="45.67" fill="#B2B2B2" opacity="0.5"/><rect x="583.32" y="291.71" width="4.35" height="45.67" fill="#B2B2B2" opacity="0.5"/><path d="M281 282.89C294 330.46 339.17 375.59 407.18 418.98 355.42 368.78 319.61 320.84 321.91 278.34Z" fill="#E5E5E5"/><path d="M563.76 282.89C550.76 330.46 505.59 375.59 437.58 418.98 489.34 368.78 525.15 320.84 522.86 278.34Z" fill="#E5E5E5"/><path d="M408.09 277.45 444.39 279.45 423.05 419.39 408.09 277.45Z" fill="#E5E5E5"/><rect x="224.46" y="276.49" width="395.83" height="13.05" fill="#B2B2B2"/><path d="M407.19 469.56C400.53 491.27 410 505.78 415 527 421.27 553.64 402.39 572.71 400.12 597.94 399.77 601.85 404.25 603.24 407.12 601.94 425.7 593.77 430.98 567.18 431.51 548.65 432.31 520.65 414 497.56 411.93 470.2 411.873 468.843 410.727 467.788 409.37 467.844 408.34 467.887 407.445 468.568 407.13 469.55Z" fill="#515151"/><path d="M445.34 492.19C440.18 509.62 440.94 523.48 447.77 540.24 453.42 554.1 458.43 566.39 453.58 581.55 450 592.71 441.67 600.95 435.31 610.47 431.72 615.85 438.49 620.47 443.26 618.42 460.26 611.1 467.56 591.94 468.6 574.42 470.32 545.48 446.38 523.86 453.6 494.5 454.92 489.14 446.91 486.93 445.34 492.22Z" fill="#515151"/><path d="M378.18 530.84C374.98 548.22 361.94 562.51 360.36 580.33 359.06 595.05 365.74 608.25 377.36 616.96 379.01 618.2 380.51 615.9 379.87 614.45 376.71 607.23 371.17 600.78 368.68 593.29 365.33 583.22 369.15 573.4 373.02 564.13 377.71 552.89 381.43 543.63 381.94 531.35 382.03 529.23 378.58 528.7 378.19 530.84Z" fill="#515151"/></g></g></g></svg>