<svg viewBox="0 0 8603.23 5735.49" xmlns="http://www.w3.org/2000/svg" xmlns:xlink="http://www.w3.org/1999/xlink" overflow="hidden"><defs></defs><g><g id="Слой_2"><g id="BACKGROUND"><rect x="0" y="0" width="8603.23" height="4837.58" fill="#C2D1CA"/><rect x="0" y="4611.59" width="8603.23" height="1123.9" fill="#676E66"/><rect x="0" y="628.18" width="2261.68" height="3015.37" fill="#FBFFFF"/><rect x="0" y="688.85" width="2188.76" height="2891.87" fill="#D2F3FC"/><path d="M1974.06 1349.68 1974.06 1610.87 1820.95 1610.87 1820.95 1876.57 1325.58 1876.57 1325.58 1610.87 1149.95 1610.87 1149.95 1295.64 803.19 1295.64 803.19 1984.64 600.54 1984.64 600.54 1516.3 442.93 1516.3 442.93 1250.61 0 1250.61 0 3580.73 442.93 3580.73 521.75 3580.73 600.54 3580.73 803.19 3580.73 942.8 3580.73 1094.38 3580.73 1149.95 3580.73 1244.52 3580.73 1325.58 3580.73 1820.95 3580.73 1883.99 3580.73 1974.06 3580.73 2059.62 3580.73 2188.76 3580.73 2188.76 1349.68 1974.06 1349.68Z" fill="#BEE3EC"/><path d="M0 2251.73 996.04 3580.73 1705.58 3580.73 0 1235.57 0 2251.73Z" fill="#D2F3FC" opacity="0.4"/><path d="M843.64 688.85 508.86 688.85 2188.76 2930.32 2188.76 2538.39 843.64 688.85Z" fill="#D2F3FC" opacity="0.4"/></g><g id="OBJECTS"><rect x="5853.8" y="401.66" width="2749.44" height="4242.87" fill="#D0D5BE"/><path d="M8603.23 401.66 5853.8 401.66 5853.8 2673.44 8603.23 1006.37 8603.23 401.66Z" fill="#A7BBB2" opacity="0.2"/><rect x="6029.19" y="541.5" width="2574.05" height="4103.04" fill="#D0D5BE" opacity="0.4"/><rect x="6204.58" y="681.35" width="2398.66" height="3963.19" fill="#F9F0D3"/><path d="M6204.58 681.35 6204.58 2385.18 8603.23 907.77 8603.23 681.35 6204.58 681.35Z" fill="#D6D5C0" opacity="0.2"/><rect x="6451.59" y="766.06" width="2151.65" height="3878.48" fill="#D0D5BE" opacity="0.2"/><rect x="6555.36" y="806.26" width="2047.87" height="3838.28" fill="#BAC8BB"/><path d="M6555.36 806.26 6555.36 2097.66 8603.23 806.26 6555.36 806.26Z" fill="#7C9C99" opacity="0.2"/><path d="M8603.23 1419.03 6555.36 2786.45 6555.36 3015.3 8603.23 1647.88 8603.23 1419.03Z" fill="#BAC8BB" opacity="0.3"/><path d="M8603.23 2213.54 6555.36 3580.96 6555.36 3989.51 8603.23 2622.1 8603.23 2213.54Z" fill="#BAC8BB" opacity="0.3"/><path d="M7902.64 806.26C7902.64 806.26 7903.45 866.26 7904.86 971.18 7905.86 1076.18 7907.34 1226.07 7909.07 1405.99 7910.07 1585.91 7912.14 1795.81 7912.58 2020.71 7913.02 2245.61 7913.58 2485.51 7914.1 2725.4 7913.59 2965.29 7913.1 3205.19 7912.59 3430.08 7912.08 3654.97 7910.04 3864.89 7909.1 4044.81 7907.35 4224.73 7905.89 4374.66 7904.87 4479.61 7903.45 4584.61 7902.64 4644.54 7902.64 4644.54 7902.64 4644.54 7901.84 4584.54 7900.41 4479.61 7899.41 4374.66 7897.94 4224.73 7896.19 4044.81 7895.25 3864.89 7893.08 3654.99 7892.7 3430.08 7892.32 3205.17 7891.7 2965.29 7891.18 2725.4 7891.71 2485.51 7892.18 2245.61 7892.71 2020.71 7893.24 1795.81 7895.26 1585.91 7896.21 1405.99 7897.95 1226.07 7899.4 1076.14 7900.42 971.18 7901.84 866.23 7902.64 806.26 7902.64 806.26Z" fill="#728E77"/><rect x="7522.97" y="466.32" width="805.04" height="172.14" fill="#03405C"/><rect x="7522.97" y="541.5" width="805.04" height="96.95" fill="#033344"/><rect x="4792.23" y="0" width="21.19" height="904.67" fill="#6B6D6A"/><path d="M4637.47 1180.23C4637.46 1271.55 4711.48 1345.59 4802.8 1345.6 4894.12 1345.61 4968.16 1271.59 4968.17 1180.27 4968.18 1088.95 4894.16 1014.91 4802.84 1014.9 4802.83 1014.9 4802.83 1014.9 4802.82 1014.9 4711.51 1014.89 4637.48 1088.92 4637.47 1180.23Z" fill="#FFFCFB"/><path d="M4699.48 973.57C4699.47 1030.64 4745.73 1076.9 4802.8 1076.91 4802.8 1076.91 4802.81 1076.91 4802.81 1076.91L4802.81 1076.91C4859.87 1076.92 4906.14 1030.67 4906.15 973.61 4906.15 973.597 4906.15 973.583 4906.15 973.57L4906.15 928.8C4906.16 871.738 4859.91 825.471 4802.85 825.46 4802.84 825.46 4802.82 825.46 4802.81 825.46L4802.81 825.46C4745.74 825.46 4699.48 871.722 4699.48 928.79 4699.48 928.793 4699.48 928.797 4699.48 928.8Z" fill="#7C252D"/><path d="M4506.59 1250.84 4506.59 1154.42C4506.59 1037.42 4601.44 942.56 4718.45 942.56L4887.2 942.56C5004.2 942.56 5099.05 1037.42 5099.05 1154.42L5099.05 1250.84Z" fill="#C63A3D"/><path d="M4506.59 1154.42 4506.59 1250.84 4910.17 1250.84 4670.45 948.23C4576.6 970 4506.59 1054 4506.59 1154.42Z" fill="#BB3438"/><rect x="3458.12" y="0" width="21.19" height="684.22" fill="#6B6D6A"/><path d="M3303.38 959.79C3303.38 1051.11 3377.41 1125.14 3468.73 1125.14 3560.05 1125.14 3634.08 1051.11 3634.08 959.79 3634.08 868.47 3560.05 794.44 3468.73 794.44 3468.73 794.44 3468.72 794.44 3468.72 794.44 3377.41 794.44 3303.38 868.465 3303.38 959.78 3303.38 959.783 3303.38 959.787 3303.38 959.79Z" fill="#FFFCFB"/><path d="M3365.39 753.12C3365.38 810.188 3411.64 856.454 3468.71 856.46L3468.71 856.46C3525.78 856.466 3572.05 810.203 3572.06 753.13 3572.06 753.127 3572.06 753.123 3572.06 753.12L3572.06 708.35C3572.06 651.271 3525.79 605 3468.71 605L3468.71 605C3411.64 605.011 3365.38 651.281 3365.39 708.35Z" fill="#7C252D"/><path d="M3172.49 1030.39 3172.49 934C3172.49 817 3267.34 722.15 3384.35 722.15L3553.1 722.15C3670.11 722.12 3765 817 3765 934L3765 1030.42Z" fill="#C63A3D"/><path d="M3172.49 934 3172.49 1030.42 3576.07 1030.42 3336.34 727.82C3242.49 749.56 3172.49 833.5 3172.49 934Z" fill="#BB3438"/><rect x="2124.04" y="0" width="21.18" height="510.27" fill="#6B6D6A"/><path d="M1969.28 785.84C1969.28 877.16 2043.31 951.19 2134.63 951.19 2225.95 951.19 2299.98 877.16 2299.98 785.84 2299.98 694.52 2225.95 620.49 2134.63 620.49 2134.63 620.49 2134.62 620.49 2134.62 620.49 2043.31 620.49 1969.28 694.515 1969.28 785.83 1969.28 785.833 1969.28 785.837 1969.28 785.84Z" fill="#FFFCFB"/><path d="M2031.29 579.17C2031.28 636.238 2077.54 682.504 2134.61 682.51 2134.61 682.51 2134.62 682.51 2134.62 682.51L2134.62 682.51C2191.69 682.538 2237.97 636.298 2238 579.23 2238 579.21 2238 579.19 2238 579.17L2238 534.4C2238.01 477.332 2191.75 431.066 2134.68 431.06 2134.67 431.06 2134.67 431.06 2134.66 431.06L2134.66 431.06C2077.59 431.038 2031.31 477.282 2031.29 534.35 2031.29 534.367 2031.29 534.383 2031.29 534.4Z" fill="#7C252D"/><path d="M1838.4 856.44 1838.4 760C1838.4 643 1933.26 548.16 2050.26 548.16L2219 548.16C2336 548.16 2430.85 643 2430.85 760L2430.85 856.43Z" fill="#C63A3D"/><path d="M1838.4 760 1838.4 856.43 2242 856.43 2002.28 553.83C1908.43 575.61 1838.4 659.55 1838.4 760Z" fill="#BB3438"/><rect x="588.7" y="3151.92" width="5092.65" height="1886.54" fill="#FFFFFF"/><path d="M1921.6 3435.56 2506.67 3432.48 3793.82 3429.83C4261.82 3430.83 4729.93 3431.75 5080.97 3432.47L5666.04 3435.56 5081 3438.65 3793.85 3441.28 2506.7 3438.64Z" fill="#EAECE9"/><path d="M1921.6 3643.55 2506.67 3640.47 3793.82 3637.82C4261.82 3638.82 4729.93 3639.74 5080.97 3640.46L5666.04 3643.55 5081 3646.64 3793.85 3649.27 2506.7 3646.63Z" fill="#EAECE9"/><path d="M1921.6 3851.54 2506.67 3848.46 3793.82 3845.81C4261.82 3846.81 4729.93 3847.73 5080.97 3848.45L5666.04 3851.54 5081 3854.63 3793.85 3857.26 2506.7 3854.62Z" fill="#EAECE9"/><path d="M1921.6 4059.53 2506.67 4056.45 3793.82 4053.8C4261.82 4054.8 4729.93 4055.72 5080.97 4056.44L5666.04 4059.53 5081 4062.62 3793.85 4065.25 2506.7 4062.61Z" fill="#EAECE9"/><path d="M1921.6 4267.52 2506.67 4264.44 3793.82 4261.79C4261.82 4262.79 4729.93 4263.71 5080.97 4264.43L5666.04 4267.52 5081 4270.61 3793.85 4273.24 2506.7 4270.6Z" fill="#EAECE9"/><path d="M1921.6 4475.51 2506.67 4472.43 3793.82 4469.78C4261.82 4470.78 4729.93 4471.7 5080.97 4472.42L5666.04 4475.51 5081 4478.6 3793.85 4481.23 2506.7 4478.59Z" fill="#EAECE9"/><path d="M1921.6 4683.5 2506.67 4680.42 3793.82 4677.77C4261.82 4678.77 4729.93 4679.69 5080.97 4680.41L5666 4683.5 5081 4686.59 3793.85 4689.22 2506.7 4686.58Z" fill="#EAECE9"/><path d="M1921.6 4891.49 2506.67 4888.41 3793.82 4885.76C4261.82 4886.76 4729.93 4887.68 5080.97 4888.4L5666.04 4891.49 5081 4894.58 3793.85 4897.21 2506.7 4894.57Z" fill="#EAECE9"/><rect x="588.7" y="3151.92" width="1347.42" height="1886.54" fill="#EAECE9"/><path d="M5681.35 3151.92 588.7 3151.92 588.7 4556.5 1937.13 3808.43 5681.35 3208.22 5681.35 3151.92Z" fill="#EAECE9" opacity="0.5"/><rect x="523.51" y="3009.8" width="5244.77" height="224.86" fill="#BB8D75"/><rect x="523.51" y="3009.8" width="1499.54" height="224.86" fill="#B17457"/><path d="M1790.19 3847.9C1397.5 3869.77 1093.19 4171.75 1064.78 4565.57 1063.32 4585.74 1089.47 4588.28 1099.25 4574.9 1189.82 4450.9 1282.82 4332.73 1379.91 4213.46 1496.05 4070.79 1622.62 3937.46 1794.58 3864.04 1802.58 3860.62 1798.42 3847.43 1790.19 3847.9Z" fill="#55893E"/><path d="M241.81 3606.79C404.89 3729.93 538.73 3856.58 661.07 4019.79 722.21 4101.32 767.22 4189.09 814.28 4278.93 860.07 4366.4 917.96 4445.25 955.55 4536.84 960.33 4548.46 977.98 4542.62 978.34 4531.35 981.54 4426.99 994.93 4322.27 965.79 4220.06 935.29 4113.16 862.91 4015.6 788.34 3935.24 647.62 3783.45 431.67 3684.7 248 3597 241.28 3593.77 235.86 3602.26 241.86 3606.79Z" fill="#55893E"/><path d="M202.62 3997.59C268.04 4036.91 335.17 4067.34 396.34 4114.5 453.7 4158.73 504.34 4212.36 552.19 4266.5 598.19 4318.5 642.4 4372.92 690.08 4423.29 732.62 4468.29 781.86 4506.67 824.59 4552.09 834.48 4562.58 850.73 4552.79 850.82 4540.09 851.24 4473.39 855.07 4398.03 829.36 4335.36 797.86 4258.52 739.73 4191.84 671.18 4145.25 545.4 4059.73 363.88 3959 205.39 3985.62 199.33 3986.62 196.79 3994.08 202.62 3997.62Z" fill="#55893E"/><path d="M1606.06 3940.34C1270.8 4046.27 1087.29 4419.73 1030.65 4743.34 1028.74 4754.27 1045.41 4758.96 1047.38 4747.95 1105.38 4422.34 1284.3 4071.38 1606.38 3941.4 1607.05 3941.13 1606.8 3940.05 1606.07 3940.3Z" fill="#396311"/><path d="M398.56 3713.85C573.68 3804.16 718.48 3933.54 817.11 4105.02 934 4308.26 970 4548.51 975.4 4779.61 975.75 4794.51 999.05 4794.51 998.51 4779.61 990.21 4543.09 948.37 4305.21 829.98 4097.49 731.68 3925.08 578.69 3795.08 402.64 3706.86 398 3704.53 393.91 3711.46 398.56 3713.86Z" fill="#396311"/><path d="M336.94 4028.92C477.64 4086.13 605.66 4171.79 702.6 4289.69 804.76 4413.94 838.72 4577.53 875.6 4729.75 877.6 4737.83 889.26 4734.31 887.86 4726.36 860.35 4570.36 810.78 4406.28 712.37 4279.89 618.37 4159.13 479.5 4077.52 338.13 4024.48 335.31 4023.41 334.2 4027.84 336.9 4028.92Z" fill="#396311"/><path d="M626.63 4720.08 1282 4720.08C1282 4720.08 1278.17 5099.49 954.32 5099.49 630.47 5099.49 626.63 4720.08 626.63 4720.08Z" fill="#C63A3D"/><path d="M626.63 4720.08C626.63 4720.08 630.46 5099.49 954.3 5099.49 1014.12 5099.49 1062.94 5086.49 1102.92 5065.39L875.3 4720.08Z" fill="#BB3438"/><path d="M1314.55 4723.92C1314.55 4749.33 1293.96 4769.92 1268.55 4769.92L640.05 4769.92C614.645 4769.92 594.05 4749.33 594.05 4723.92L594.05 4723.92C594.05 4698.51 614.645 4677.92 640.05 4677.92L1268.56 4677.92C1293.97 4677.92 1314.56 4698.51 1314.56 4723.92Z" fill="#7C252D"/><rect x="795.17" y="2587.11" width="227.27" height="422.69" fill="#4B4643"/><path d="M1196.55 3009.8 912.39 3009.8 795.17 2587.11 1079.32 2587.11 1196.55 3009.8Z" fill="#676E66"/><path d="M1056.66 2621.21 843.2 2621.21C842.446 2621.15 841.887 2620.48 841.952 2619.73 842.009 2619.06 842.536 2618.54 843.2 2618.48L1056.66 2618.48C1057.41 2618.54 1057.97 2619.21 1057.91 2619.96 1057.85 2620.63 1057.32 2621.15 1056.66 2621.21Z" fill="#EAECE9"/><path d="M1063 2644.8 849.51 2644.8C848.756 2644.74 848.197 2644.07 848.262 2643.32 848.319 2642.65 848.846 2642.13 849.51 2642.07L1063 2642.07C1063.75 2642.13 1064.31 2642.8 1064.25 2643.55 1064.19 2644.22 1063.66 2644.74 1063 2644.8Z" fill="#EAECE9"/><path d="M1069.28 2668.4 855.83 2668.4C855.076 2668.46 854.413 2667.91 854.348 2667.15 854.284 2666.4 854.842 2665.73 855.596 2665.67 855.674 2665.66 855.752 2665.66 855.83 2665.67L1069.28 2665.67C1070.03 2665.61 1070.7 2666.16 1070.76 2666.92 1070.83 2667.67 1070.27 2668.34 1069.51 2668.4 1069.44 2668.41 1069.36 2668.41 1069.28 2668.4Z" fill="#EAECE9"/><path d="M1075.6 2692 862.13 2692C861.379 2692 860.77 2691.39 860.77 2690.64 860.77 2689.89 861.379 2689.28 862.13 2689.28L1075.6 2689.28C1076.35 2689.28 1076.96 2689.89 1076.96 2690.64 1076.96 2691.39 1076.35 2692 1075.6 2692Z" fill="#EAECE9"/><path d="M1081.91 2715.59 868.45 2715.59C867.696 2715.65 867.033 2715.1 866.968 2714.34 866.904 2713.59 867.462 2712.92 868.216 2712.86 868.294 2712.85 868.372 2712.85 868.45 2712.86L1081.91 2712.86C1082.66 2712.92 1083.22 2713.59 1083.16 2714.34 1083.1 2715.01 1082.57 2715.53 1081.91 2715.59Z" fill="#EAECE9"/><path d="M1088.21 2739.18 874.76 2739.18C874.006 2739.12 873.447 2738.45 873.512 2737.7 873.569 2737.03 874.096 2736.51 874.76 2736.45L1088.21 2736.45C1088.96 2736.39 1089.63 2736.94 1089.69 2737.7 1089.76 2738.45 1089.2 2739.12 1088.44 2739.18 1088.37 2739.19 1088.29 2739.19 1088.21 2739.18Z" fill="#EAECE9"/><path d="M1094.53 2762.77 881.07 2762.77C880.316 2762.71 879.757 2762.04 879.822 2761.29 879.879 2760.62 880.406 2760.1 881.07 2760.04L1094.53 2760.04C1095.28 2760.1 1095.84 2760.77 1095.78 2761.52 1095.72 2762.19 1095.19 2762.71 1094.53 2762.77Z" fill="#EAECE9"/><path d="M1100.84 2786.36 887.38 2786.36C886.635 2786.38 886.017 2785.79 886 2785.04 886 2785.03 886 2785.01 886 2785 886 2784.25 886.607 2783.64 887.36 2783.63L1100.82 2783.63C1101.57 2783.64 1102.18 2784.25 1102.19 2785 1102.19 2785.75 1101.59 2786.35 1100.84 2786.36Z" fill="#EAECE9"/><path d="M1107.15 2810 893.69 2810C892.944 2810.01 892.336 2809.41 892.33 2808.66 892.33 2808.66 892.33 2808.65 892.33 2808.65 892.33 2807.9 892.937 2807.29 893.69 2807.28L1107.15 2807.28C1107.9 2807.29 1108.51 2807.9 1108.51 2808.65 1108.51 2809.4 1107.91 2810 1107.16 2810 1107.16 2810 1107.15 2810 1107.15 2810Z" fill="#EAECE9"/><path d="M1113.46 2833.56 900 2833.56C899.243 2833.56 898.63 2832.95 898.63 2832.19 898.63 2831.43 899.243 2830.82 900 2830.82L1113.45 2830.82C1114.21 2830.82 1114.82 2831.43 1114.82 2832.19 1114.82 2832.95 1114.21 2833.56 1113.45 2833.56Z" fill="#EAECE9"/><path d="M1119.77 2857.15 906.31 2857.15C905.557 2857.14 904.95 2856.53 904.95 2855.78 904.95 2855.03 905.554 2854.43 906.3 2854.43 906.303 2854.43 906.307 2854.43 906.31 2854.43L1119.77 2854.43C1120.52 2854.42 1121.13 2855.03 1121.14 2855.78 1121.14 2855.78 1121.14 2855.78 1121.14 2855.78 1121.14 2856.54 1120.53 2857.15 1119.77 2857.15Z" fill="#EAECE9"/><path d="M1126.09 2880.74 912.63 2880.74C911.879 2880.74 911.27 2880.13 911.27 2879.38 911.27 2878.63 911.879 2878.02 912.63 2878.02L1126.09 2878.02C1126.84 2878.02 1127.45 2878.63 1127.45 2879.38 1127.45 2880.13 1126.84 2880.74 1126.09 2880.74Z" fill="#EAECE9"/><path d="M1132.4 2904.33 918.94 2904.33C918.189 2904.33 917.58 2903.72 917.58 2902.97 917.58 2902.22 918.189 2901.61 918.94 2901.61L1132.4 2901.61C1133.15 2901.61 1133.76 2902.22 1133.76 2902.97 1133.76 2903.72 1133.15 2904.33 1132.4 2904.33Z" fill="#EAECE9"/><path d="M1138.71 2927.92 925.25 2927.92C924.499 2927.92 923.89 2927.31 923.89 2926.56 923.89 2925.81 924.499 2925.2 925.25 2925.2L1138.71 2925.2C1139.46 2925.2 1140.07 2925.81 1140.07 2926.56 1140.07 2927.31 1139.46 2927.92 1138.71 2927.92Z" fill="#EAECE9"/><path d="M1248.25 2716.84C1249.42 2720.08 1247.74 2723.65 1244.5 2724.81 1244.47 2724.82 1244.45 2724.83 1244.42 2724.84L1244.42 2724.84C1241.16 2725.99 1237.58 2724.29 1236.43 2721.03 1236.43 2721.02 1236.42 2721.01 1236.42 2721L1230.2 2703.19C1229.04 2699.95 1230.72 2696.38 1233.96 2695.22 1233.98 2695.21 1234.01 2695.2 1234.04 2695.19L1234.04 2695.19C1237.28 2694.03 1240.85 2695.71 1242.01 2698.95 1242.02 2698.97 1242.03 2699 1242.04 2699.03Z" fill="#4B4643"/><path d="M1330.59 2991.74C1323.86 2991.73 1317.87 2987.45 1315.69 2981.08L1230.69 2732.08C1227.77 2723.89 1232.04 2714.88 1240.24 2711.96 1248.43 2709.04 1257.44 2713.31 1260.36 2721.5 1260.41 2721.64 1260.46 2721.77 1260.5 2721.91L1345.5 2970.91C1348.32 2979.13 1343.94 2988.08 1335.72 2990.9 1335.71 2990.91 1335.71 2990.91 1335.7 2990.91 1334.06 2991.48 1332.33 2991.76 1330.59 2991.74Z" fill="#7C252D"/><path d="M1390.41 2976C1390.4 2994.55 1375.37 3009.58 1356.82 3009.57 1356.82 3009.57 1356.81 3009.57 1356.81 3009.57L1285.66 3009.57C1267.12 3009.58 1252.08 2994.56 1252.07 2976.02 1252.07 2976.01 1252.07 2976.01 1252.07 2976L1252.07 2976C1252.08 2957.45 1267.11 2942.41 1285.66 2942.4L1356.81 2942.4C1375.36 2942.41 1390.4 2957.45 1390.41 2976Z" fill="#4B4643"/><path d="M1283 2942.67C1264.56 2944.1 1250.77 2960.2 1252.19 2978.64 1253.55 2996.13 1268.17 3009.62 1285.71 3009.55L1356.86 3009.55C1362.71 3009.52 1368.44 3007.95 1373.49 3004.99Z" fill="#2D2A29"/><path d="M2686.65 2702.85C2694.38 2733.9 2675.51 2759.06 2644.46 2759.06L1437.07 2759.06C1406.07 2759.06 1374.59 2733.9 1366.85 2702.85L1185.58 1975.85C1177.85 1944.85 1196.73 1919.65 1227.78 1919.65L2435.17 1919.65C2466.17 1919.65 2497.66 1944.81 2505.38 1975.85Z" fill="#FFFFFF"/><path d="M1416.88 1919.66 1227.78 1919.66C1196.78 1919.66 1177.85 1944.82 1185.58 1975.86L1366.85 2702.86C1374.59 2733.91 1406.02 2759.07 1437.07 2759.07L2644.46 2759.07C2649.51 2759.09 2654.53 2758.34 2659.36 2756.86Z" fill="#F4F2F3"/><path d="M2686.65 2702.85 2505.38 1975.85C2497.66 1944.85 2466.22 1919.65 2435.17 1919.65L1227.78 1919.65C1206.32 1919.65 1190.95 1931.8 1185.88 1949.45 1189.17 1948.8 1192.52 1948.47 1195.88 1948.45L2403.26 1948.45C2434.26 1948.45 2465.75 1973.61 2473.49 2004.65L2654.74 2731.65C2656.99 2740.32 2656.89 2749.43 2654.45 2758.05 2679.39 2753.2 2693.51 2730.38 2686.65 2702.85Z" fill="#828481"/><path d="M2271.38 2930.61 2115.65 2930.61 2115.65 2527.54C2115.66 2496.5 2090.5 2471.34 2059.46 2471.33 2059.45 2471.33 2059.44 2471.33 2059.43 2471.33L1823.43 2471.33C1792.4 2471.32 1767.24 2496.48 1767.23 2527.51 1767.23 2527.52 1767.23 2527.53 1767.23 2527.54L1767.23 2953.6C1767.23 2984.64 1792.39 3009.8 1823.43 3009.8L2271.43 3009.8C2293.3 3009.45 2310.74 2991.44 2310.4 2969.58 2310.06 2948.2 2292.81 2930.95 2271.43 2930.61Z" fill="#FFFFFF"/><path d="M2310.13 2962.12C2306.3 2943.77 2290.13 2930.62 2271.38 2930.61L2115.65 2930.61 2115.65 2527.54C2115.61 2503.7 2100.48 2482.49 2077.95 2474.7L2077.95 2962.12Z" fill="#828481"/></g></g></g></svg>